<svg xmlns="http://www.w3.org/2000/svg" viewBox="0 0 725.71 725.70" aria-label="Pembroke Tudor Rose">
  <g transform="translate(-1978.42,30.00)">
    <path fill="rgb(85.040283%, 12.998962%, 17.454529%)" d="M 2630.609375 452.699219 L 2576.648438 475 L 2576.648438 430.398438 L 2608.25 398.800781 Z M 2491.761719 387 L 2461.488281 356.800781 L 2501.011719 340.398438 L 2579.480469 372.898438 L 2588.519531 351.101562 L 2602.5 384.898438 L 2576.648438 410.699219 L 2576.648438 387 Z M 2562.75 424.601562 L 2546.039062 441.300781 L 2505.679688 401 L 2562.75 401 Z M 2562.75 444.300781 L 2562.75 480.800781 L 2528.960938 494.800781 L 2538.019531 473 L 2459.558594 440.5 L 2443.179688 401 L 2485.980469 401 L 2546.039062 461 Z M 2562.75 554.300781 L 2504.320312 554.300781 L 2521.410156 513 L 2562.75 495.898438 Z M 2467.089844 458.601562 L 2519.820312 480.5 L 2510.738281 502.398438 L 2488.949219 511.398438 Z M 2489.25 554.300781 L 2452.730469 554.300781 L 2469.421875 537.601562 L 2409.371094 477.5 L 2409.371094 434.800781 L 2448.871094 451.101562 L 2481.421875 529.601562 L 2503.210938 520.601562 Z M 2461.121094 622.199219 L 2407.191406 599.800781 L 2438.808594 568.199219 L 2483.480469 568.199219 Z M 2393.261719 594.101562 L 2359.5 580.101562 L 2381.308594 571.101562 L 2348.820312 492.601562 L 2352.660156 483.398438 L 2365.21875 453.101562 L 2395.46875 483.300781 L 2395.46875 568.199219 L 2419.101562 568.199219 Z M 2341.308594 646 L 2300 604.699219 L 2341.308594 587.699219 L 2382.601562 604.699219 Z M 2263.511719 568.199219 L 2287.140625 568.199219 L 2287.140625 483.300781 L 2317.398438 453.101562 L 2329.960938 483.398438 L 2333.769531 492.601562 L 2301.238281 571.101562 L 2323.089844 580.101562 L 2289.351562 594.101562 Z M 2221.441406 622.199219 L 2199.128906 568.199219 L 2243.820312 568.199219 L 2275.421875 599.800781 Z M 2273.21875 497.199219 L 2273.21875 554.300781 L 2249.589844 554.300781 L 2232.878906 537.601562 Z M 2179.390625 520.601562 L 2201.210938 529.601562 L 2233.699219 451.101562 L 2273.21875 434.800781 L 2273.21875 477.5 L 2213.199219 537.601562 L 2229.890625 554.300781 L 2193.339844 554.300781 Z M 2119.839844 554.300781 L 2119.839844 495.898438 L 2161.171875 513 L 2178.289062 554.300781 Z M 2105.941406 410.699219 L 2080.078125 384.898438 L 2094.089844 351.101562 L 2103.121094 372.898438 L 2181.578125 340.398438 L 2221.089844 356.800781 L 2190.851562 387 L 2105.941406 387 Z M 2105.941406 475 L 2051.949219 452.699219 L 2074.308594 398.800781 L 2105.941406 430.398438 Z M 2028.109375 332.898438 L 2069.421875 291.601562 L 2086.539062 332.898438 L 2069.421875 374.199219 Z M 2051.949219 213 L 2105.941406 190.699219 L 2105.941406 235.398438 L 2074.308594 267 Z M 2163.378906 332.898438 L 2110.648438 354.699219 L 2101.609375 332.898438 L 2110.648438 311 Z M 2190.851562 278.699219 L 2221.101562 308.898438 L 2181.601562 325.300781 L 2103.121094 292.800781 L 2094.089844 314.699219 L 2080.078125 280.898438 L 2105.941406 255.101562 L 2105.941406 278.699219 Z M 2119.839844 241.101562 L 2136.589844 224.398438 L 2176.910156 264.699219 L 2119.839844 264.699219 Z M 2119.839844 221.398438 L 2119.839844 184.898438 L 2153.628906 170.898438 L 2144.570312 192.699219 L 2223.039062 225.199219 L 2239.410156 264.699219 L 2196.640625 264.699219 L 2136.589844 204.699219 L 2119.839844 221.5 Z M 2119.839844 111.398438 L 2178.289062 111.398438 L 2161.171875 152.699219 L 2119.839844 169.898438 Z M 2215.480469 207 L 2162.789062 185.199219 L 2171.828125 163.398438 L 2193.699219 154.300781 Z M 2193.339844 111.398438 L 2229.898438 111.398438 L 2213.199219 128.199219 L 2273.21875 188.199219 L 2273.21875 231 L 2233.699219 214.601562 L 2201.210938 136.101562 L 2179.371094 145.199219 Z M 2221.441406 43.5 L 2275.421875 65.898438 L 2243.820312 97.5 L 2199.128906 97.5 Z M 2289.351562 71.699219 L 2323.128906 85.601562 L 2301.238281 94.699219 L 2333.769531 173.199219 L 2317.398438 212.699219 L 2287.140625 182.398438 L 2287.140625 97.5 L 2263.511719 97.5 Z M 2341.308594 19.699219 L 2382.601562 61 L 2341.308594 78.101562 L 2300 61 Z M 2419.101562 97.5 L 2395.46875 97.5 L 2395.46875 182.398438 L 2375.691406 202.199219 L 2365.21875 212.699219 L 2348.820312 173.101562 L 2381.308594 94.699219 L 2359.488281 85.601562 L 2393.261719 71.699219 Z M 2461.121094 43.5 L 2483.480469 97.5 L 2438.808594 97.5 L 2407.191406 65.898438 Z M 2409.371094 168.5 L 2409.371094 111.398438 L 2433.039062 111.398438 L 2449.730469 128.199219 Z M 2503.261719 145.199219 L 2481.421875 136.101562 L 2448.871094 214.601562 L 2409.371094 231 L 2409.371094 188.199219 L 2469.421875 128.199219 L 2452.710938 111.398438 L 2489.25 111.398438 Z M 2562.75 111.398438 L 2562.75 169.898438 L 2521.460938 152.699219 L 2504.320312 111.398438 Z M 2562.75 241.101562 L 2562.75 264.699219 L 2505.699219 264.699219 L 2546.039062 224.398438 Z M 2467.089844 207 L 2488.949219 154.300781 L 2510.800781 163.398438 L 2519.820312 185.199219 Z M 2538.019531 192.800781 L 2529 170.898438 L 2562.75 184.898438 L 2562.75 221.398438 L 2546.039062 204.699219 L 2485.980469 264.699219 L 2443.179688 264.699219 L 2459.558594 225.199219 Z M 2319.441406 102.199219 L 2341.289062 93.199219 L 2363.109375 102.199219 L 2341.308594 154.898438 Z M 2273.21875 168.5 L 2232.878906 128.199219 L 2249.589844 111.398438 L 2273.21875 111.398438 Z M 2119.839844 424.601562 L 2119.839844 401 L 2176.929688 401 L 2136.589844 441.300781 Z M 2144.570312 473 L 2153.628906 494.800781 L 2119.839844 480.800781 L 2119.839844 444.300781 L 2136.589844 461 L 2196.640625 401 L 2239.410156 401 L 2223.039062 440.5 Z M 2215.5 458.699219 L 2193.699219 511.398438 L 2171.828125 502.398438 L 2162.789062 480.5 Z M 2363.109375 563.5 L 2341.289062 572.601562 L 2319.441406 563.5 L 2341.308594 510.800781 Z M 2409.371094 497.199219 L 2449.730469 537.601562 L 2433.039062 554.300781 L 2409.371094 554.300781 Z M 2472.058594 387 L 2422.339844 387 L 2441.359375 432.898438 L 2395.46875 413.898438 L 2395.46875 463.601562 L 2360.320312 428.5 L 2341.308594 474.398438 L 2322.289062 428.5 L 2287.140625 463.601562 L 2287.140625 413.898438 L 2241.238281 433 L 2260.25 387 L 2210.53125 387 L 2245.671875 351.898438 L 2199.761719 332.898438 L 2245.648438 313.800781 L 2210.53125 278.699219 L 2260.25 278.699219 L 2241.238281 232.800781 L 2287.140625 251.800781 L 2287.140625 202.101562 L 2322.289062 237.199219 L 2341.308594 191.300781 L 2360.320312 237.199219 L 2395.46875 202.101562 L 2395.46875 251.800781 L 2441.339844 232.800781 L 2422.339844 278.699219 L 2472.058594 278.699219 L 2436.910156 313.800781 L 2482.828125 332.898438 L 2436.910156 351.898438 Z M 2580.988281 332.898438 L 2571.960938 354.699219 L 2519.230469 332.898438 L 2571.960938 311 Z M 2576.648438 255 L 2602.5 280.898438 L 2588.519531 314.699219 L 2579.480469 292.800781 L 2501.011719 325.300781 L 2461.488281 308.898438 L 2491.761719 278.699219 L 2576.648438 278.699219 Z M 2576.648438 190.699219 L 2630.609375 213 L 2608.25 267 L 2576.648438 235.300781 Z M 2654.449219 332.898438 L 2613.160156 374.199219 L 2596.058594 332.898438 L 2613.160156 291.601562 Z M 2674.128906 332.898438 L 2618.910156 277.699219 L 2648.808594 205.5 L 2576.648438 175.601562 L 2576.648438 97.5 L 2498.558594 97.5 L 2468.648438 25.300781 L 2396.53125 55.199219 L 2341.308594 0 L 2286.078125 55.199219 L 2213.898438 25.300781 L 2184.039062 97.5 L 2105.941406 97.5 L 2105.941406 175.601562 L 2033.75 205.5 L 2063.648438 277.699219 L 2008.421875 332.898438 L 2063.648438 388.101562 L 2033.75 460.199219 L 2105.941406 490.101562 L 2105.941406 568.199219 L 2184.039062 568.199219 L 2213.898438 640.398438 L 2286.078125 610.5 L 2341.308594 665.699219 L 2396.53125 610.5 L 2468.648438 640.398438 L 2498.558594 568.199219 L 2576.648438 568.199219 L 2576.648438 490.101562 L 2648.808594 460.199219 L 2618.910156 388.101562 L 2674.128906 332.898438 "/>
  </g>
</svg>