<svg xmlns="http://www.w3.org/2000/svg" viewBox="0 0 3169.77 765.69" aria-label="Pembroke logo on taupe">
<g transform="translate(-1958.42,-8680.71)">
  <path fill="rgb(85.040283%, 12.998962%, 17.454529%)" d="M 2630.609375 9183.421875 L 2576.648438 9205.75 L 2576.648438 9161.109375 L 2608.25 9129.480469 Z M 2491.761719 9117.738281 L 2461.488281 9087.46875 L 2501.011719 9071.128906 L 2579.480469 9103.601562 L 2588.519531 9081.789062 L 2602.5 9115.558594 L 2576.648438 9141.410156 L 2576.648438 9117.738281 Z M 2562.75 9155.328125 L 2546.039062 9172.03125 L 2505.679688 9131.679688 L 2562.75 9131.679688 Z M 2562.75 9175.050781 L 2562.75 9211.539062 L 2528.960938 9225.53125 L 2538.019531 9203.691406 L 2459.558594 9171.179688 L 2443.179688 9131.679688 L 2485.980469 9131.679688 L 2546.039062 9191.71875 L 2562.75 9175.03125 Z M 2562.75 9284.980469 L 2504.320312 9284.980469 L 2521.410156 9243.730469 L 2562.75 9226.589844 Z M 2467.089844 9189.359375 L 2519.820312 9211.199219 L 2510.738281 9233.078125 L 2488.949219 9242.109375 Z M 2489.25 9284.980469 L 2452.730469 9284.980469 L 2469.421875 9268.308594 L 2409.371094 9208.230469 L 2409.371094 9165.46875 L 2448.871094 9181.820312 L 2481.421875 9260.289062 L 2503.210938 9251.261719 Z M 2461.121094 9352.898438 L 2407.191406 9330.53125 L 2438.808594 9298.921875 L 2483.480469 9298.921875 Z M 2393.261719 9324.761719 L 2359.5 9310.828125 L 2381.308594 9301.761719 L 2348.820312 9223.328125 L 2352.660156 9214.089844 L 2365.21875 9183.789062 L 2395.46875 9214.03125 L 2395.46875 9298.921875 L 2419.101562 9298.921875 Z M 2341.308594 9376.730469 L 2300 9335.421875 L 2341.308594 9318.359375 L 2382.601562 9335.421875 Z M 2263.511719 9298.921875 L 2287.140625 9298.921875 L 2287.140625 9214.03125 L 2317.398438 9183.789062 L 2329.960938 9214.089844 L 2333.769531 9223.320312 L 2301.238281 9301.761719 L 2323.089844 9310.828125 L 2289.351562 9324.761719 Z M 2221.441406 9352.898438 L 2199.128906 9298.921875 L 2243.820312 9298.921875 L 2275.421875 9330.53125 Z M 2273.21875 9227.929688 L 2273.21875 9284.980469 L 2249.589844 9284.980469 L 2232.878906 9268.308594 Z M 2179.390625 9251.261719 L 2201.210938 9260.289062 L 2233.699219 9181.859375 L 2273.21875 9165.46875 L 2273.21875 9208.230469 L 2213.199219 9268.308594 L 2229.890625 9284.980469 L 2193.339844 9284.980469 Z M 2119.839844 9284.980469 L 2119.839844 9226.589844 L 2161.171875 9243.730469 L 2178.289062 9284.980469 Z M 2105.941406 9141.390625 L 2080.078125 9115.558594 L 2094.089844 9081.769531 L 2103.121094 9103.601562 L 2181.578125 9071.128906 L 2221.089844 9087.46875 L 2190.851562 9117.738281 L 2105.941406 9117.738281 Z M 2105.941406 9205.75 L 2051.949219 9183.421875 L 2074.308594 9129.460938 L 2105.941406 9161.089844 Z M 2028.109375 9063.589844 L 2069.421875 9022.28125 L 2086.539062 9063.589844 L 2069.421875 9104.878906 Z M 2051.949219 8943.738281 L 2105.941406 8921.398438 L 2105.941406 8966.070312 L 2074.308594 8997.699219 Z M 2163.378906 9063.589844 L 2110.648438 9085.421875 L 2101.609375 9063.589844 L 2110.648438 9041.75 Z M 2190.851562 9009.371094 L 2221.101562 9039.640625 L 2181.601562 9056.039062 L 2103.121094 9023.550781 L 2094.089844 9045.390625 L 2080.078125 9011.621094 L 2105.941406 8985.78125 L 2105.941406 9009.371094 Z M 2119.839844 8971.859375 L 2136.589844 8955.109375 L 2176.910156 8995.429688 L 2119.839844 8995.429688 Z M 2119.839844 8952.148438 L 2119.839844 8915.628906 L 2153.628906 8901.621094 L 2144.570312 8923.441406 L 2223.039062 8955.929688 L 2239.410156 8995.429688 L 2196.640625 8995.429688 L 2136.589844 8935.441406 L 2119.839844 8952.171875 Z M 2119.839844 8842.128906 L 2178.289062 8842.128906 L 2161.171875 8883.441406 L 2119.839844 8900.570312 Z M 2215.480469 8937.75 L 2162.789062 8915.929688 L 2171.828125 8894.078125 L 2193.699219 8885.058594 Z M 2193.339844 8842.128906 L 2229.898438 8842.128906 L 2213.199219 8858.878906 L 2273.21875 8918.898438 L 2273.21875 8961.679688 L 2233.699219 8945.289062 L 2201.210938 8866.859375 L 2179.371094 8875.921875 Z M 2221.441406 8774.210938 L 2275.421875 8796.601562 L 2243.820312 8828.191406 L 2199.128906 8828.191406 Z M 2289.351562 8802.371094 L 2323.128906 8816.339844 L 2301.238281 8825.398438 L 2333.769531 8903.871094 L 2317.398438 8943.371094 L 2287.140625 8913.128906 L 2287.140625 8828.191406 L 2263.511719 8828.191406 Z M 2341.308594 8750.398438 L 2382.601562 8791.679688 L 2341.308594 8808.800781 L 2300 8791.679688 Z M 2419.101562 8828.191406 L 2395.46875 8828.191406 L 2395.46875 8913.128906 L 2375.691406 8932.890625 L 2365.21875 8943.371094 L 2348.820312 8903.851562 L 2381.308594 8825.398438 L 2359.488281 8816.339844 L 2393.261719 8802.371094 Z M 2461.121094 8774.210938 L 2483.480469 8828.191406 L 2438.808594 8828.191406 L 2407.191406 8796.578125 Z M 2409.371094 8899.21875 L 2409.371094 8842.128906 L 2433.039062 8842.128906 L 2449.730469 8858.878906 Z M 2503.261719 8875.898438 L 2481.421875 8866.859375 L 2448.871094 8945.289062 L 2409.371094 8961.679688 L 2409.371094 8918.898438 L 2469.421875 8858.878906 L 2452.710938 8842.128906 L 2489.25 8842.128906 Z M 2562.75 8842.128906 L 2562.75 8900.570312 L 2521.460938 8883.441406 L 2504.320312 8842.128906 Z M 2562.75 8971.839844 L 2562.75 8995.429688 L 2505.699219 8995.429688 L 2546.039062 8955.109375 Z M 2467.089844 8937.75 L 2488.949219 8885.058594 L 2510.800781 8894.078125 L 2519.820312 8915.941406 Z M 2538.019531 8923.480469 L 2529 8901.640625 L 2562.75 8915.628906 L 2562.75 8952.128906 L 2546.039062 8935.441406 L 2485.980469 8995.429688 L 2443.179688 8995.429688 L 2459.558594 8955.929688 Z M 2319.441406 8832.921875 L 2341.289062 8823.878906 L 2363.109375 8832.921875 L 2341.308594 8885.648438 Z M 2273.21875 8899.21875 L 2232.878906 8858.878906 L 2249.589844 8842.128906 L 2273.21875 8842.128906 Z M 2119.839844 9155.289062 L 2119.839844 9131.679688 L 2176.929688 9131.679688 L 2136.589844 9172.03125 Z M 2144.570312 9203.691406 L 2153.628906 9225.53125 L 2119.839844 9211.539062 L 2119.839844 9174.988281 L 2136.589844 9191.71875 L 2196.640625 9131.679688 L 2239.410156 9131.679688 L 2223.039062 9171.21875 Z M 2215.5 9189.390625 L 2193.699219 9242.109375 L 2171.828125 9233.078125 L 2162.789062 9211.199219 Z M 2363.109375 9294.230469 L 2341.289062 9303.269531 L 2319.441406 9294.230469 L 2341.308594 9241.511719 Z M 2409.371094 9227.929688 L 2449.730469 9268.308594 L 2433.039062 9284.980469 L 2409.371094 9284.980469 Z M 2472.058594 9117.738281 L 2422.339844 9117.738281 L 2441.359375 9163.640625 L 2395.46875 9144.640625 L 2395.46875 9194.328125 L 2360.320312 9159.230469 L 2341.308594 9205.140625 L 2322.289062 9159.230469 L 2287.140625 9194.328125 L 2287.140625 9144.640625 L 2241.238281 9163.660156 L 2260.25 9117.738281 L 2210.53125 9117.738281 L 2245.671875 9082.570312 L 2199.761719 9063.570312 L 2245.648438 9044.539062 L 2210.53125 9009.371094 L 2260.25 9009.371094 L 2241.238281 8963.5 L 2287.140625 8982.519531 L 2287.140625 8932.800781 L 2322.289062 8967.949219 L 2341.308594 8922.03125 L 2360.320312 8967.949219 L 2395.46875 8932.800781 L 2395.46875 8982.519531 L 2441.339844 8963.5 L 2422.339844 9009.371094 L 2472.058594 9009.371094 L 2436.910156 9044.539062 L 2482.828125 9063.570312 L 2436.910156 9082.570312 Z M 2580.988281 9063.589844 L 2571.960938 9085.421875 L 2519.230469 9063.589844 L 2571.960938 9041.75 Z M 2576.648438 8985.761719 L 2602.5 9011.621094 L 2588.519531 9045.378906 L 2579.480469 9023.550781 L 2501.011719 9056.039062 L 2461.488281 9039.640625 L 2491.761719 9009.371094 L 2576.648438 9009.371094 Z M 2576.648438 8921.398438 L 2630.609375 8943.738281 L 2608.25 8997.699219 L 2576.648438 8966.03125 Z M 2654.449219 9063.589844 L 2613.160156 9104.878906 L 2596.058594 9063.589844 L 2613.160156 9022.28125 Z M 2674.128906 9063.589844 L 2618.910156 9008.371094 L 2648.808594 8936.210938 L 2576.648438 8906.308594 L 2576.648438 8828.191406 L 2498.558594 8828.191406 L 2468.648438 8756.03125 L 2396.53125 8785.929688 L 2341.308594 8730.710938 L 2286.078125 8785.929688 L 2213.898438 8756.03125 L 2184.039062 8828.191406 L 2105.941406 8828.191406 L 2105.941406 8906.308594 L 2033.75 8936.210938 L 2063.648438 9008.371094 L 2008.421875 9063.589844 L 2063.648438 9118.800781 L 2033.75 9190.960938 L 2105.941406 9220.839844 L 2105.941406 9298.921875 L 2184.039062 9298.921875 L 2213.898438 9371.078125 L 2286.078125 9341.191406 L 2341.308594 9396.398438 L 2396.53125 9341.191406 L 2468.648438 9371.078125 L 2498.558594 9298.921875 L 2576.648438 9298.921875 L 2576.648438 9220.839844 L 2648.808594 9190.960938 L 2618.910156 9118.800781 L 2674.128906 9063.589844 "/>
  <path fill="rgb(8.865356%, 10.014343%, 11.578369%)" d="M 2980.691406 9054.371094 C 2997.578125 9054.371094 3010.070312 9050.410156 3018.199219 9042.441406 C 3026.308594 9034.480469 3030.328125 9023.238281 3030.328125 9008.691406 C 3030.328125 8994.140625 3026.050781 8983.828125 3017.441406 8977.921875 C 3008.800781 8971.960938 2996.578125 8968.96875 2980.691406 8968.96875 L 2944.960938 8968.96875 L 2944.960938 9054.371094 Z M 2859.570312 8901.460938 L 2984.648438 8901.460938 C 3001.878906 8901.460938 3018.328125 8903.171875 3034.070312 8906.671875 C 3049.78125 8910.128906 3063.539062 8916.101562 3075.289062 8924.550781 C 3087.050781 8932.960938 3096.371094 8944.050781 3103.351562 8957.78125 C 3110.289062 8971.550781 3113.75 8988.5 3113.75 9008.691406 C 3113.75 9028.558594 3110.210938 9045.609375 3103.101562 9059.808594 C 3095.960938 9074.078125 3086.46875 9085.730469 3074.539062 9094.808594 C 3062.609375 9103.898438 3048.878906 9110.75 3033.328125 9115.199219 C 3017.769531 9119.660156 3001.550781 9121.878906 2984.648438 9121.878906 L 2944.960938 9121.878906 L 2944.960938 9224.179688 L 2859.570312 9224.179688 L 2859.570312 8901.460938 "/>
  <path fill="rgb(8.865356%, 10.014343%, 11.578369%)" d="M 3135.390625 8901.460938 L 3343.921875 8901.460938 L 3343.921875 8972.929688 L 3220.769531 8972.929688 L 3220.769531 9023.558594 L 3326.03125 9023.558594 L 3326.03125 9095.070312 L 3220.769531 9095.070312 L 3220.769531 9152.699219 L 3348.878906 9152.699219 L 3348.878906 9224.191406 L 3135.390625 9224.191406 L 3135.390625 8901.460938 "/>
  <path fill="rgb(8.865356%, 10.014343%, 11.578369%)" d="M 3372.449219 8901.460938 L 3460.828125 8901.460938 L 3511.421875 9035.488281 L 3529.320312 9088.109375 L 3531.308594 9088.109375 L 3549.160156 9035.488281 L 3597.851562 8901.460938 L 3686.179688 8901.460938 L 3686.179688 9224.191406 L 3606.769531 9224.191406 L 3606.769531 9128.839844 C 3606.769531 9120.558594 3607.191406 9111.460938 3608.03125 9101.53125 C 3608.828125 9091.609375 3609.738281 9081.410156 3610.75 9070.988281 C 3611.75 9060.589844 3612.871094 9050.410156 3614.210938 9040.488281 C 3615.550781 9030.539062 3616.699219 9021.589844 3617.671875 9013.628906 L 3615.71875 9013.628906 L 3588.890625 9089.078125 L 3544.210938 9197.839844 L 3512.429688 9197.839844 L 3467.75 9089.078125 L 3441.929688 9013.628906 L 3439.929688 9013.628906 C 3440.941406 9021.589844 3442.109375 9030.539062 3443.398438 9040.488281 C 3444.75 9050.410156 3445.910156 9060.589844 3446.910156 9070.988281 C 3447.898438 9081.410156 3448.808594 9091.609375 3449.648438 9101.53125 C 3450.46875 9111.460938 3450.878906 9120.558594 3450.878906 9128.839844 L 3450.878906 9224.191406 L 3372.449219 9224.191406 L 3372.449219 8901.460938 "/>
  <path fill="rgb(8.865356%, 10.014343%, 11.578369%)" d="M 3829.941406 9158.640625 C 3863.058594 9158.640625 3879.601562 9146.378906 3879.601562 9121.871094 C 3879.601562 9109.980469 3875.558594 9101.378906 3867.429688 9096.078125 C 3859.359375 9090.800781 3846.851562 9088.121094 3829.941406 9088.121094 L 3795.21875 9088.121094 L 3795.21875 9158.640625 Z M 3824 9028.570312 C 3837.921875 9028.570312 3848.160156 9025.371094 3854.800781 9019.078125 C 3861.398438 9012.851562 3864.71875 9004.738281 3864.71875 8994.78125 C 3864.71875 8984.851562 3861.398438 8977.738281 3854.800781 8973.421875 C 3848.160156 8969.140625 3837.921875 8967 3824 8967 L 3795.21875 8967 L 3795.21875 9028.570312 Z M 3709.789062 8901.46875 L 3826 8901.46875 C 3842.910156 8901.46875 3858.738281 8902.710938 3873.648438 8905.148438 C 3888.550781 8907.660156 3901.429688 8911.851562 3912.390625 8917.820312 C 3923.289062 8923.78125 3931.980469 8931.960938 3938.460938 8942.398438 C 3944.898438 8952.820312 3948.128906 8966 3948.128906 8981.851562 C 3948.128906 8988.808594 3947.128906 8995.839844 3945.140625 9002.96875 C 3943.148438 9010.109375 3939.929688 9016.871094 3935.460938 9023.339844 C 3931.011719 9029.800781 3925.339844 9035.5 3918.578125 9040.480469 C 3911.808594 9045.410156 3903.75 9049.058594 3894.488281 9051.390625 L 3894.488281 9053.378906 C 3917.339844 9057.988281 3934.480469 9066.351562 3945.878906 9078.421875 C 3957.289062 9090.570312 3963.019531 9107.320312 3963.019531 9128.828125 C 3963.019531 9145.410156 3959.609375 9159.738281 3952.859375 9171.808594 C 3946.070312 9183.890625 3936.929688 9193.808594 3925.511719 9201.621094 C 3914.121094 9209.339844 3900.609375 9215.070312 3885.070312 9218.699219 C 3869.519531 9222.351562 3853.121094 9224.171875 3835.890625 9224.171875 L 3709.789062 9224.171875 L 3709.789062 8901.46875 "/>
  <path fill="rgb(8.865356%, 10.014343%, 11.578369%)" d="M 4071.808594 9048.429688 L 4102.601562 9048.429688 C 4136.96875 9048.429688 4154.199219 9034.160156 4154.199219 9005.691406 C 4154.199219 8991.789062 4149.808594 8982.210938 4141.078125 8976.898438 C 4132.300781 8971.621094 4119.480469 8968.960938 4102.601562 8968.960938 L 4071.808594 8968.960938 Z M 4160.171875 9224.171875 L 4104.570312 9115.960938 L 4071.808594 9115.960938 L 4071.808594 9224.171875 L 3986.421875 9224.171875 L 3986.421875 8901.46875 L 4108.550781 8901.46875 C 4125.75 8901.46875 4142.21875 8903.128906 4157.941406 8906.398438 C 4173.660156 8909.710938 4187.378906 8915.351562 4199.148438 8923.28125 C 4210.890625 8931.261719 4220.25 8941.898438 4227.179688 8955.339844 C 4234.171875 8968.730469 4237.628906 8985.5 4237.628906 9005.691406 C 4237.628906 9028.871094 4232.929688 9048.058594 4223.46875 9063.300781 C 4214.058594 9078.539062 4201.371094 9090.441406 4185.480469 9099.058594 L 4255.511719 9224.171875 L 4160.171875 9224.171875 "/>
  <path fill="rgb(8.865356%, 10.014343%, 11.578369%)" d="M 4406.109375 9156.671875 C 4425.628906 9156.671875 4440.921875 9148.128906 4452.03125 9131.070312 C 4463.140625 9114.03125 4468.648438 9090.789062 4468.648438 9061.308594 C 4468.648438 9031.839844 4463.140625 9009.101562 4452.03125 8993.019531 C 4440.921875 8977 4425.628906 8968.96875 4406.109375 8968.96875 C 4386.589844 8968.96875 4371.238281 8977 4360.191406 8993.019531 C 4349.078125 9009.101562 4343.53125 9031.839844 4343.53125 9061.308594 C 4343.53125 9090.789062 4349.078125 9114.03125 4360.191406 9131.070312 C 4371.238281 9148.128906 4386.589844 9156.671875 4406.109375 9156.671875 M 4406.109375 9230.140625 C 4383.589844 9230.140625 4363.160156 9226.28125 4344.800781 9218.691406 C 4326.429688 9211.101562 4310.710938 9200.089844 4297.628906 9185.699219 C 4284.53125 9171.261719 4274.371094 9153.589844 4267.089844 9132.578125 C 4259.820312 9111.53125 4256.148438 9087.808594 4256.148438 9061.308594 C 4256.148438 9034.828125 4259.820312 9011.238281 4267.089844 8990.53125 C 4274.371094 8969.890625 4284.53125 8952.519531 4297.628906 8938.429688 C 4310.710938 8924.378906 4326.429688 8913.648438 4344.800781 8906.410156 C 4363.160156 8899.101562 4383.589844 8895.46875 4406.109375 8895.46875 C 4428.25 8895.46875 4448.640625 8899.101562 4467.160156 8906.410156 C 4485.710938 8913.648438 4501.511719 8924.460938 4514.589844 8938.691406 C 4527.691406 8952.929688 4537.851562 8970.289062 4545.121094 8990.808594 C 4552.398438 9011.328125 4556.058594 9034.828125 4556.058594 9061.308594 C 4556.058594 9087.808594 4552.398438 9111.53125 4545.121094 9132.578125 C 4537.851562 9153.589844 4527.691406 9171.261719 4514.589844 9185.699219 C 4501.511719 9200.089844 4485.710938 9211.101562 4467.160156 9218.691406 C 4448.640625 9226.28125 4428.25 9230.140625 4406.109375 9230.140625 "/>
  <path fill="rgb(8.865356%, 10.014343%, 11.578369%)" d="M 4578.878906 8901.460938 L 4664.269531 8901.460938 L 4664.269531 9048.011719 L 4666.238281 9048.011719 L 4747.679688 8901.460938 L 4841.019531 8901.460938 L 4744.710938 9058.921875 L 4842.148438 9224.191406 L 4748.820312 9224.191406 L 4664.269531 9073.929688 L 4664.269531 9224.191406 L 4578.878906 9224.191406 L 4578.878906 8901.460938 "/>
  <path fill="rgb(8.865356%, 10.014343%, 11.578369%)" d="M 4864.671875 8901.460938 L 5073.199219 8901.460938 L 5073.199219 8972.929688 L 4950.058594 8972.929688 L 4950.058594 9023.558594 L 5055.339844 9023.558594 L 5055.339844 9095.070312 L 4950.058594 9095.070312 L 4950.058594 9152.699219 L 5078.191406 9152.699219 L 5078.191406 9224.191406 L 4864.671875 9224.191406 L 4864.671875 8901.460938 "/>
</g>
</svg>