<svg xmlns="http://www.w3.org/2000/svg" viewBox="0 0 3169.77 765.70" aria-label="Pembroke logo on light">
<g transform="translate(-1958.42,50.00)">
  <path fill="rgb(85.040283%, 12.998962%, 17.454529%)" d="M 2630.609375 452.699219 L 2576.648438 475 L 2576.648438 430.398438 L 2608.25 398.800781 Z M 2491.761719 387 L 2461.488281 356.800781 L 2501.011719 340.398438 L 2579.480469 372.898438 L 2588.519531 351.101562 L 2602.5 384.898438 L 2576.648438 410.699219 L 2576.648438 387 Z M 2562.75 424.601562 L 2546.039062 441.300781 L 2505.679688 401 L 2562.75 401 Z M 2562.75 444.300781 L 2562.75 480.800781 L 2528.960938 494.800781 L 2538.019531 473 L 2459.558594 440.5 L 2443.179688 401 L 2485.980469 401 L 2546.039062 461 Z M 2562.75 554.300781 L 2504.320312 554.300781 L 2521.410156 513 L 2562.75 495.898438 Z M 2467.089844 458.601562 L 2519.820312 480.5 L 2510.738281 502.398438 L 2488.949219 511.398438 Z M 2489.25 554.300781 L 2452.730469 554.300781 L 2469.421875 537.601562 L 2409.371094 477.5 L 2409.371094 434.800781 L 2448.871094 451.101562 L 2481.421875 529.601562 L 2503.210938 520.601562 Z M 2461.121094 622.199219 L 2407.191406 599.800781 L 2438.808594 568.199219 L 2483.480469 568.199219 Z M 2393.261719 594.101562 L 2359.5 580.101562 L 2381.308594 571.101562 L 2348.820312 492.601562 L 2352.660156 483.398438 L 2365.21875 453.101562 L 2395.46875 483.300781 L 2395.46875 568.199219 L 2419.101562 568.199219 Z M 2341.308594 646 L 2300 604.699219 L 2341.308594 587.699219 L 2382.601562 604.699219 Z M 2263.511719 568.199219 L 2287.140625 568.199219 L 2287.140625 483.300781 L 2317.398438 453.101562 L 2329.960938 483.398438 L 2333.769531 492.601562 L 2301.238281 571.101562 L 2323.089844 580.101562 L 2289.351562 594.101562 Z M 2221.441406 622.199219 L 2199.128906 568.199219 L 2243.820312 568.199219 L 2275.421875 599.800781 Z M 2273.21875 497.199219 L 2273.21875 554.300781 L 2249.589844 554.300781 L 2232.878906 537.601562 Z M 2179.390625 520.601562 L 2201.210938 529.601562 L 2233.699219 451.101562 L 2273.21875 434.800781 L 2273.21875 477.5 L 2213.199219 537.601562 L 2229.890625 554.300781 L 2193.339844 554.300781 Z M 2119.839844 554.300781 L 2119.839844 495.898438 L 2161.171875 513 L 2178.289062 554.300781 Z M 2105.941406 410.699219 L 2080.078125 384.898438 L 2094.089844 351.101562 L 2103.121094 372.898438 L 2181.578125 340.398438 L 2221.089844 356.800781 L 2190.851562 387 L 2105.941406 387 Z M 2105.941406 475 L 2051.949219 452.699219 L 2074.308594 398.800781 L 2105.941406 430.398438 Z M 2028.109375 332.898438 L 2069.421875 291.601562 L 2086.539062 332.898438 L 2069.421875 374.199219 Z M 2051.949219 213 L 2105.941406 190.699219 L 2105.941406 235.398438 L 2074.308594 267 Z M 2163.378906 332.898438 L 2110.648438 354.699219 L 2101.609375 332.898438 L 2110.648438 311 Z M 2190.851562 278.699219 L 2221.101562 308.898438 L 2181.601562 325.300781 L 2103.121094 292.800781 L 2094.089844 314.699219 L 2080.078125 280.898438 L 2105.941406 255.101562 L 2105.941406 278.699219 Z M 2119.839844 241.101562 L 2136.589844 224.398438 L 2176.910156 264.699219 L 2119.839844 264.699219 Z M 2119.839844 221.398438 L 2119.839844 184.898438 L 2153.628906 170.898438 L 2144.570312 192.699219 L 2223.039062 225.199219 L 2239.410156 264.699219 L 2196.640625 264.699219 L 2136.589844 204.699219 L 2119.839844 221.5 Z M 2119.839844 111.398438 L 2178.289062 111.398438 L 2161.171875 152.699219 L 2119.839844 169.898438 Z M 2215.480469 207 L 2162.789062 185.199219 L 2171.828125 163.398438 L 2193.699219 154.300781 Z M 2193.339844 111.398438 L 2229.898438 111.398438 L 2213.199219 128.199219 L 2273.21875 188.199219 L 2273.21875 231 L 2233.699219 214.601562 L 2201.210938 136.101562 L 2179.371094 145.199219 Z M 2221.441406 43.5 L 2275.421875 65.898438 L 2243.820312 97.5 L 2199.128906 97.5 Z M 2289.351562 71.699219 L 2323.128906 85.601562 L 2301.238281 94.699219 L 2333.769531 173.199219 L 2317.398438 212.699219 L 2287.140625 182.398438 L 2287.140625 97.5 L 2263.511719 97.5 Z M 2341.308594 19.699219 L 2382.601562 61 L 2341.308594 78.101562 L 2300 61 Z M 2419.101562 97.5 L 2395.46875 97.5 L 2395.46875 182.398438 L 2375.691406 202.199219 L 2365.21875 212.699219 L 2348.820312 173.101562 L 2381.308594 94.699219 L 2359.488281 85.601562 L 2393.261719 71.699219 Z M 2461.121094 43.5 L 2483.480469 97.5 L 2438.808594 97.5 L 2407.191406 65.898438 Z M 2409.371094 168.5 L 2409.371094 111.398438 L 2433.039062 111.398438 L 2449.730469 128.199219 Z M 2503.261719 145.199219 L 2481.421875 136.101562 L 2448.871094 214.601562 L 2409.371094 231 L 2409.371094 188.199219 L 2469.421875 128.199219 L 2452.710938 111.398438 L 2489.25 111.398438 Z M 2562.75 111.398438 L 2562.75 169.898438 L 2521.460938 152.699219 L 2504.320312 111.398438 Z M 2562.75 241.101562 L 2562.75 264.699219 L 2505.699219 264.699219 L 2546.039062 224.398438 Z M 2467.089844 207 L 2488.949219 154.300781 L 2510.800781 163.398438 L 2519.820312 185.199219 Z M 2538.019531 192.800781 L 2529 170.898438 L 2562.75 184.898438 L 2562.75 221.398438 L 2546.039062 204.699219 L 2485.980469 264.699219 L 2443.179688 264.699219 L 2459.558594 225.199219 Z M 2319.441406 102.199219 L 2341.289062 93.199219 L 2363.109375 102.199219 L 2341.308594 154.898438 Z M 2273.21875 168.5 L 2232.878906 128.199219 L 2249.589844 111.398438 L 2273.21875 111.398438 Z M 2119.839844 424.601562 L 2119.839844 401 L 2176.929688 401 L 2136.589844 441.300781 Z M 2144.570312 473 L 2153.628906 494.800781 L 2119.839844 480.800781 L 2119.839844 444.300781 L 2136.589844 461 L 2196.640625 401 L 2239.410156 401 L 2223.039062 440.5 Z M 2215.5 458.699219 L 2193.699219 511.398438 L 2171.828125 502.398438 L 2162.789062 480.5 Z M 2363.109375 563.5 L 2341.289062 572.601562 L 2319.441406 563.5 L 2341.308594 510.800781 Z M 2409.371094 497.199219 L 2449.730469 537.601562 L 2433.039062 554.300781 L 2409.371094 554.300781 Z M 2472.058594 387 L 2422.339844 387 L 2441.359375 432.898438 L 2395.46875 413.898438 L 2395.46875 463.601562 L 2360.320312 428.5 L 2341.308594 474.398438 L 2322.289062 428.5 L 2287.140625 463.601562 L 2287.140625 413.898438 L 2241.238281 433 L 2260.25 387 L 2210.53125 387 L 2245.671875 351.898438 L 2199.761719 332.898438 L 2245.648438 313.800781 L 2210.53125 278.699219 L 2260.25 278.699219 L 2241.238281 232.800781 L 2287.140625 251.800781 L 2287.140625 202.101562 L 2322.289062 237.199219 L 2341.308594 191.300781 L 2360.320312 237.199219 L 2395.46875 202.101562 L 2395.46875 251.800781 L 2441.339844 232.800781 L 2422.339844 278.699219 L 2472.058594 278.699219 L 2436.910156 313.800781 L 2482.828125 332.898438 L 2436.910156 351.898438 Z M 2580.988281 332.898438 L 2571.960938 354.699219 L 2519.230469 332.898438 L 2571.960938 311 Z M 2576.648438 255 L 2602.5 280.898438 L 2588.519531 314.699219 L 2579.480469 292.800781 L 2501.011719 325.300781 L 2461.488281 308.898438 L 2491.761719 278.699219 L 2576.648438 278.699219 Z M 2576.648438 190.699219 L 2630.609375 213 L 2608.25 267 L 2576.648438 235.300781 Z M 2654.449219 332.898438 L 2613.160156 374.199219 L 2596.058594 332.898438 L 2613.160156 291.601562 Z M 2674.128906 332.898438 L 2618.910156 277.699219 L 2648.808594 205.5 L 2576.648438 175.601562 L 2576.648438 97.5 L 2498.558594 97.5 L 2468.648438 25.300781 L 2396.53125 55.199219 L 2341.308594 0 L 2286.078125 55.199219 L 2213.898438 25.300781 L 2184.039062 97.5 L 2105.941406 97.5 L 2105.941406 175.601562 L 2033.75 205.5 L 2063.648438 277.699219 L 2008.421875 332.898438 L 2063.648438 388.101562 L 2033.75 460.199219 L 2105.941406 490.101562 L 2105.941406 568.199219 L 2184.039062 568.199219 L 2213.898438 640.398438 L 2286.078125 610.5 L 2341.308594 665.699219 L 2396.53125 610.5 L 2468.648438 640.398438 L 2498.558594 568.199219 L 2576.648438 568.199219 L 2576.648438 490.101562 L 2648.808594 460.199219 L 2618.910156 388.101562 L 2674.128906 332.898438 "/>
  <path fill="rgb(8.865356%, 10.014343%, 11.578369%)" d="M 2980.691406 323.699219 C 2997.578125 323.699219 3010.070312 319.699219 3018.199219 311.699219 C 3026.308594 303.800781 3030.328125 292.5 3030.328125 278 C 3030.328125 263.398438 3026.050781 253.101562 3017.441406 247.199219 C 3008.800781 241.300781 2996.578125 238.300781 2980.691406 238.300781 L 2944.960938 238.300781 L 2944.960938 323.699219 Z M 2859.570312 170.699219 L 2984.648438 170.699219 C 3001.878906 170.699219 3018.328125 172.5 3034.070312 176 C 3049.78125 179.398438 3063.539062 185.398438 3075.289062 193.800781 C 3087.050781 202.300781 3096.371094 213.300781 3103.351562 227.101562 C 3110.289062 240.800781 3113.75 257.800781 3113.75 278 C 3113.75 297.898438 3110.210938 314.898438 3103.101562 329.101562 C 3095.960938 343.398438 3086.46875 355 3074.539062 364.101562 C 3062.609375 373.199219 3048.878906 380 3033.328125 384.5 C 3017.769531 389 3001.550781 391.199219 2984.648438 391.199219 L 2944.960938 391.199219 L 2944.960938 493.5 L 2859.570312 493.5 L 2859.570312 170.699219 "/>
  <path fill="rgb(8.865356%, 10.014343%, 11.578369%)" d="M 3135.390625 170.800781 L 3343.921875 170.800781 L 3343.921875 242.199219 L 3220.769531 242.199219 L 3220.769531 292.898438 L 3326.03125 292.898438 L 3326.03125 364.398438 L 3220.769531 364.398438 L 3220.769531 422 L 3348.878906 422 L 3348.878906 493.5 L 3135.390625 493.5 L 3135.390625 170.800781 "/>
  <path fill="rgb(8.865356%, 10.014343%, 11.578369%)" d="M 3372.449219 170.800781 L 3460.828125 170.800781 L 3511.421875 304.800781 L 3529.320312 357.398438 L 3531.308594 357.398438 L 3549.160156 304.800781 L 3597.851562 170.800781 L 3686.179688 170.800781 L 3686.179688 493.5 L 3606.769531 493.5 L 3606.769531 398.101562 C 3606.769531 389.898438 3607.191406 380.800781 3608.03125 370.800781 C 3608.828125 360.898438 3609.738281 350.699219 3610.75 340.300781 C 3611.75 329.898438 3612.871094 319.699219 3614.210938 309.800781 C 3615.550781 299.800781 3616.699219 290.898438 3617.671875 282.898438 L 3615.71875 282.898438 L 3588.890625 358.398438 L 3544.210938 467.101562 L 3512.429688 467.101562 L 3467.75 358.398438 L 3441.929688 282.898438 L 3439.929688 282.898438 C 3440.941406 290.898438 3442.109375 299.800781 3443.398438 309.800781 C 3444.75 319.699219 3445.910156 329.898438 3446.910156 340.300781 C 3447.898438 350.699219 3448.808594 360.898438 3449.648438 370.800781 C 3450.46875 380.800781 3450.878906 389.898438 3450.878906 398.101562 L 3450.878906 493.5 L 3372.449219 493.5 L 3372.449219 170.800781 "/>
  <path fill="rgb(8.865356%, 10.014343%, 11.578369%)" d="M 3829.941406 427.898438 C 3863.058594 427.898438 3879.601562 415.699219 3879.601562 391.199219 C 3879.601562 379.300781 3875.558594 370.699219 3867.429688 365.398438 C 3859.359375 360.101562 3846.851562 357.398438 3829.941406 357.398438 L 3795.21875 357.398438 L 3795.21875 427.898438 Z M 3824 297.898438 C 3837.921875 297.898438 3848.160156 294.699219 3854.800781 288.398438 C 3861.398438 282.101562 3864.71875 274 3864.71875 264.101562 C 3864.71875 254.101562 3861.398438 247 3854.800781 242.699219 C 3848.160156 238.398438 3837.921875 236.300781 3824 236.300781 L 3795.21875 236.300781 L 3795.21875 297.898438 Z M 3709.789062 170.800781 L 3826 170.800781 C 3842.910156 170.800781 3858.738281 172 3873.648438 174.398438 C 3888.550781 177 3901.429688 181.101562 3912.390625 187.101562 C 3923.289062 193.101562 3931.980469 201.300781 3938.460938 211.699219 C 3944.898438 222.101562 3948.128906 235.300781 3948.128906 251.101562 C 3948.128906 258.101562 3947.128906 265.101562 3945.140625 272.300781 C 3943.148438 279.398438 3939.929688 286.199219 3935.460938 292.601562 C 3931.011719 299.101562 3925.339844 304.800781 3918.578125 309.800781 C 3911.808594 314.699219 3903.75 318.398438 3894.488281 320.699219 L 3894.488281 322.699219 C 3917.339844 327.300781 3934.480469 335.601562 3945.878906 347.699219 C 3957.289062 359.898438 3963.019531 376.601562 3963.019531 398.101562 C 3963.019531 414.699219 3959.609375 429 3952.859375 441.101562 C 3946.070312 453.199219 3936.929688 463.101562 3925.511719 470.898438 C 3914.121094 478.601562 3900.609375 484.398438 3885.070312 488 C 3869.519531 491.601562 3853.121094 493.5 3835.890625 493.5 L 3709.789062 493.5 L 3709.789062 170.800781 "/>
  <path fill="rgb(8.865356%, 10.014343%, 11.578369%)" d="M 4071.808594 317.699219 L 4102.601562 317.699219 C 4136.96875 317.699219 4154.199219 303.398438 4154.199219 275 C 4154.199219 261.101562 4149.808594 251.5 4141.078125 246.199219 C 4132.300781 240.898438 4119.480469 238.199219 4102.601562 238.199219 L 4071.808594 238.199219 Z M 4160.171875 493.5 L 4104.570312 385.199219 L 4071.808594 385.199219 L 4071.808594 493.5 L 3986.421875 493.5 L 3986.421875 170.800781 L 4108.550781 170.800781 C 4125.75 170.800781 4142.21875 172.398438 4157.941406 175.699219 C 4173.660156 179 4187.378906 184.601562 4199.148438 192.601562 C 4210.890625 200.5 4220.25 211.199219 4227.179688 224.601562 C 4234.171875 238 4237.628906 254.800781 4237.628906 275 C 4237.628906 298.199219 4232.929688 317.300781 4223.46875 332.601562 C 4214.058594 347.800781 4201.371094 359.699219 4185.480469 368.300781 L 4255.511719 493.5 L 4160.171875 493.5 "/>
  <path fill="rgb(8.865356%, 10.014343%, 11.578369%)" d="M 4406.109375 426 C 4425.628906 426 4440.921875 417.398438 4452.03125 400.398438 C 4463.140625 383.300781 4468.648438 360.101562 4468.648438 330.601562 C 4468.648438 301.101562 4463.140625 278.398438 4452.03125 262.300781 C 4440.921875 246.300781 4425.628906 238.300781 4406.109375 238.300781 C 4386.589844 238.300781 4371.238281 246.300781 4360.191406 262.300781 C 4349.078125 278.398438 4343.53125 301.101562 4343.53125 330.601562 C 4343.53125 360.101562 4349.078125 383.300781 4360.191406 400.398438 C 4371.238281 417.398438 4386.589844 426 4406.109375 426 M 4406.109375 499.398438 C 4383.589844 499.398438 4363.160156 495.601562 4344.800781 488 C 4326.429688 480.398438 4310.710938 469.398438 4297.628906 455 C 4284.53125 440.601562 4274.371094 422.898438 4267.089844 401.898438 C 4259.820312 380.800781 4256.148438 357.101562 4256.148438 330.601562 C 4256.148438 304.101562 4259.820312 280.5 4267.089844 259.800781 C 4274.371094 239.199219 4284.53125 221.800781 4297.628906 207.699219 C 4310.710938 193.699219 4326.429688 182.898438 4344.800781 175.699219 C 4363.160156 168.398438 4383.589844 164.800781 4406.109375 164.800781 C 4428.25 164.800781 4448.640625 168.398438 4467.160156 175.699219 C 4485.710938 182.898438 4501.511719 193.699219 4514.589844 208 C 4527.691406 222.199219 4537.851562 239.601562 4545.121094 260.101562 C 4552.398438 280.601562 4556.058594 304.101562 4556.058594 330.601562 C 4556.058594 357.101562 4552.398438 380.800781 4545.121094 401.898438 C 4537.851562 422.898438 4527.691406 440.601562 4514.589844 455 C 4501.511719 469.398438 4485.710938 480.398438 4467.160156 488 C 4448.640625 495.601562 4428.25 499.398438 4406.109375 499.398438 "/>
  <path fill="rgb(8.865356%, 10.014343%, 11.578369%)" d="M 4578.878906 170.800781 L 4664.269531 170.800781 L 4664.269531 317.300781 L 4666.238281 317.300781 L 4747.679688 170.800781 L 4841.019531 170.800781 L 4744.710938 328.199219 L 4842.148438 493.5 L 4748.820312 493.5 L 4664.269531 343.199219 L 4664.269531 493.5 L 4578.878906 493.5 L 4578.878906 170.800781 "/>
  <path fill="rgb(8.865356%, 10.014343%, 11.578369%)" d="M 4864.671875 170.800781 L 5073.199219 170.800781 L 5073.199219 242.199219 L 4950.058594 242.199219 L 4950.058594 292.898438 L 5055.339844 292.898438 L 5055.339844 364.398438 L 4950.058594 364.398438 L 4950.058594 422 L 5078.191406 422 L 5078.191406 493.5 L 4864.671875 493.5 L 4864.671875 170.800781 "/>
</g>
</svg>