<svg xmlns="http://www.w3.org/2000/svg" viewBox="0 0 3169.77 765.70" aria-label="Pembroke logo on dark">
<g transform="translate(-1958.42,-4315.35)">
  <path fill="rgb(85.040283%, 12.998962%, 17.454529%)" d="M 2630.609375 4818.070312 L 2576.648438 4840.398438 L 2576.648438 4795.761719 L 2608.25 4764.128906 Z M 2491.761719 4752.378906 L 2461.488281 4722.109375 L 2501.011719 4705.769531 L 2579.480469 4738.238281 L 2588.519531 4716.441406 L 2602.5 4750.210938 L 2576.648438 4776.050781 L 2576.648438 4752.378906 Z M 2562.75 4789.96875 L 2546.039062 4806.679688 L 2505.679688 4766.320312 L 2562.75 4766.320312 Z M 2562.75 4809.691406 L 2562.75 4846.179688 L 2528.960938 4860.179688 L 2538.019531 4838.328125 L 2459.558594 4805.820312 L 2443.179688 4766.320312 L 2485.980469 4766.320312 L 2546.039062 4826.371094 L 2562.75 4809.679688 Z M 2562.75 4919.628906 L 2504.320312 4919.628906 L 2521.410156 4878.371094 L 2562.75 4861.238281 Z M 2467.089844 4824 L 2519.820312 4845.851562 L 2510.738281 4867.730469 L 2488.949219 4876.761719 Z M 2489.25 4919.628906 L 2452.730469 4919.628906 L 2469.421875 4902.949219 L 2409.371094 4842.871094 L 2409.371094 4800.109375 L 2448.871094 4816.46875 L 2481.421875 4894.929688 L 2503.210938 4885.910156 Z M 2461.121094 4987.539062 L 2407.191406 4965.179688 L 2438.808594 4933.558594 L 2483.480469 4933.558594 Z M 2393.261719 4959.410156 L 2359.5 4945.46875 L 2381.308594 4936.410156 L 2348.820312 4857.980469 L 2352.660156 4848.730469 L 2365.21875 4818.441406 L 2395.46875 4848.679688 L 2395.46875 4933.558594 L 2419.101562 4933.558594 Z M 2341.308594 5011.378906 L 2300 4970.070312 L 2341.308594 4953.011719 L 2382.601562 4970.070312 Z M 2263.511719 4933.558594 L 2287.140625 4933.558594 L 2287.140625 4848.679688 L 2317.398438 4818.441406 L 2329.960938 4848.730469 L 2333.769531 4857.960938 L 2301.238281 4936.410156 L 2323.089844 4945.46875 L 2289.351562 4959.410156 Z M 2221.441406 4987.539062 L 2199.128906 4933.558594 L 2243.820312 4933.558594 L 2275.421875 4965.179688 Z M 2273.21875 4862.578125 L 2273.21875 4919.628906 L 2249.589844 4919.628906 L 2232.878906 4902.949219 Z M 2179.390625 4885.910156 L 2201.210938 4894.929688 L 2233.699219 4816.5 L 2273.21875 4800.109375 L 2273.21875 4842.871094 L 2213.199219 4902.949219 L 2229.890625 4919.628906 L 2193.339844 4919.628906 Z M 2119.839844 4919.628906 L 2119.839844 4861.238281 L 2161.171875 4878.371094 L 2178.289062 4919.628906 Z M 2105.941406 4776.03125 L 2080.078125 4750.210938 L 2094.089844 4716.421875 L 2103.121094 4738.238281 L 2181.578125 4705.769531 L 2221.089844 4722.109375 L 2190.851562 4752.378906 L 2105.941406 4752.378906 Z M 2105.941406 4840.398438 L 2051.949219 4818.070312 L 2074.308594 4764.109375 L 2105.941406 4795.738281 Z M 2028.109375 4698.238281 L 2069.421875 4656.929688 L 2086.539062 4698.238281 L 2069.421875 4739.53125 Z M 2051.949219 4578.390625 L 2105.941406 4556.039062 L 2105.941406 4600.71875 L 2074.308594 4632.351562 Z M 2163.378906 4698.238281 L 2110.648438 4720.058594 L 2101.609375 4698.238281 L 2110.648438 4676.390625 Z M 2190.851562 4644.019531 L 2221.101562 4674.289062 L 2181.601562 4690.679688 L 2103.121094 4658.191406 L 2094.089844 4680.039062 L 2080.078125 4646.269531 L 2105.941406 4620.421875 L 2105.941406 4644.019531 Z M 2119.839844 4606.5 L 2136.589844 4589.761719 L 2176.910156 4630.078125 L 2119.839844 4630.078125 Z M 2119.839844 4586.800781 L 2119.839844 4550.269531 L 2153.628906 4536.261719 L 2144.570312 4558.089844 L 2223.039062 4590.578125 L 2239.410156 4630.078125 L 2196.640625 4630.078125 L 2136.589844 4570.089844 L 2119.839844 4586.820312 Z M 2119.839844 4476.769531 L 2178.289062 4476.769531 L 2161.171875 4518.078125 L 2119.839844 4535.21875 Z M 2215.480469 4572.398438 L 2162.789062 4550.570312 L 2171.828125 4528.730469 L 2193.699219 4519.699219 Z M 2193.339844 4476.769531 L 2229.898438 4476.769531 L 2213.199219 4493.519531 L 2273.21875 4553.550781 L 2273.21875 4596.328125 L 2233.699219 4579.929688 L 2201.210938 4501.5 L 2179.371094 4510.570312 Z M 2221.441406 4408.859375 L 2275.421875 4431.238281 L 2243.820312 4462.839844 L 2199.128906 4462.839844 Z M 2289.351562 4437.011719 L 2323.128906 4450.980469 L 2301.238281 4460.050781 L 2333.769531 4538.511719 L 2317.398438 4578.019531 L 2287.140625 4547.78125 L 2287.140625 4462.839844 L 2263.511719 4462.839844 Z M 2341.308594 4385.039062 L 2382.601562 4426.328125 L 2341.308594 4443.449219 L 2300 4426.328125 Z M 2419.101562 4462.839844 L 2395.46875 4462.839844 L 2395.46875 4547.78125 L 2375.691406 4567.539062 L 2365.21875 4578.019531 L 2348.820312 4538.488281 L 2381.308594 4460.050781 L 2359.488281 4450.980469 L 2393.261719 4437.011719 Z M 2461.121094 4408.859375 L 2483.480469 4462.839844 L 2438.808594 4462.839844 L 2407.191406 4431.21875 Z M 2409.371094 4533.859375 L 2409.371094 4476.769531 L 2433.039062 4476.769531 L 2449.730469 4493.519531 Z M 2503.261719 4510.550781 L 2481.421875 4501.5 L 2448.871094 4579.929688 L 2409.371094 4596.328125 L 2409.371094 4553.550781 L 2469.421875 4493.519531 L 2452.710938 4476.769531 L 2489.25 4476.769531 Z M 2562.75 4476.769531 L 2562.75 4535.21875 L 2521.460938 4518.078125 L 2504.320312 4476.769531 Z M 2562.75 4606.488281 L 2562.75 4630.078125 L 2505.699219 4630.078125 L 2546.039062 4589.761719 Z M 2467.089844 4572.398438 L 2488.949219 4519.699219 L 2510.800781 4528.730469 L 2519.820312 4550.589844 Z M 2538.019531 4558.128906 L 2529 4536.28125 L 2562.75 4550.269531 L 2562.75 4586.78125 L 2546.039062 4570.089844 L 2485.980469 4630.078125 L 2443.179688 4630.078125 L 2459.558594 4590.578125 Z M 2319.441406 4467.558594 L 2341.289062 4458.519531 L 2363.109375 4467.558594 L 2341.308594 4520.300781 Z M 2273.21875 4533.859375 L 2232.878906 4493.519531 L 2249.589844 4476.769531 L 2273.21875 4476.769531 Z M 2119.839844 4789.929688 L 2119.839844 4766.320312 L 2176.929688 4766.320312 L 2136.589844 4806.679688 Z M 2144.570312 4838.328125 L 2153.628906 4860.179688 L 2119.839844 4846.179688 L 2119.839844 4809.640625 L 2136.589844 4826.371094 L 2196.640625 4766.320312 L 2239.410156 4766.320312 L 2223.039062 4805.859375 Z M 2215.5 4824.039062 L 2193.699219 4876.761719 L 2171.828125 4867.730469 L 2162.789062 4845.851562 Z M 2363.109375 4928.871094 L 2341.289062 4937.921875 L 2319.441406 4928.871094 L 2341.308594 4876.160156 Z M 2409.371094 4862.578125 L 2449.730469 4902.949219 L 2433.039062 4919.628906 L 2409.371094 4919.628906 Z M 2472.058594 4752.378906 L 2422.339844 4752.378906 L 2441.359375 4798.289062 L 2395.46875 4779.289062 L 2395.46875 4828.96875 L 2360.320312 4793.878906 L 2341.308594 4839.78125 L 2322.289062 4793.878906 L 2287.140625 4828.96875 L 2287.140625 4779.289062 L 2241.238281 4798.308594 L 2260.25 4752.378906 L 2210.53125 4752.378906 L 2245.671875 4717.21875 L 2199.761719 4698.21875 L 2245.648438 4679.179688 L 2210.53125 4644.019531 L 2260.25 4644.019531 L 2241.238281 4598.148438 L 2287.140625 4617.171875 L 2287.140625 4567.449219 L 2322.289062 4602.601562 L 2341.308594 4556.671875 L 2360.320312 4602.601562 L 2395.46875 4567.449219 L 2395.46875 4617.171875 L 2441.339844 4598.148438 L 2422.339844 4644.019531 L 2472.058594 4644.019531 L 2436.910156 4679.179688 L 2482.828125 4698.21875 L 2436.910156 4717.21875 Z M 2580.988281 4698.238281 L 2571.960938 4720.058594 L 2519.230469 4698.238281 L 2571.960938 4676.390625 Z M 2576.648438 4620.398438 L 2602.5 4646.269531 L 2588.519531 4680.019531 L 2579.480469 4658.191406 L 2501.011719 4690.679688 L 2461.488281 4674.289062 L 2491.761719 4644.019531 L 2576.648438 4644.019531 Z M 2576.648438 4556.039062 L 2630.609375 4578.390625 L 2608.25 4632.351562 L 2576.648438 4600.679688 Z M 2654.449219 4698.238281 L 2613.160156 4739.53125 L 2596.058594 4698.238281 L 2613.160156 4656.929688 Z M 2674.128906 4698.238281 L 2618.910156 4643.011719 L 2648.808594 4570.851562 L 2576.648438 4540.949219 L 2576.648438 4462.839844 L 2498.558594 4462.839844 L 2468.648438 4390.679688 L 2396.53125 4420.578125 L 2341.308594 4365.351562 L 2286.078125 4420.578125 L 2213.898438 4390.679688 L 2184.039062 4462.839844 L 2105.941406 4462.839844 L 2105.941406 4540.949219 L 2033.75 4570.851562 L 2063.648438 4643.011719 L 2008.421875 4698.238281 L 2063.648438 4753.441406 L 2033.75 4825.601562 L 2105.941406 4855.488281 L 2105.941406 4933.558594 L 2184.039062 4933.558594 L 2213.898438 5005.71875 L 2286.078125 4975.839844 L 2341.308594 5031.050781 L 2396.53125 4975.839844 L 2468.648438 5005.71875 L 2498.558594 4933.558594 L 2576.648438 4933.558594 L 2576.648438 4855.488281 L 2648.808594 4825.601562 L 2618.910156 4753.441406 L 2674.128906 4698.238281 "/>
  <path fill="rgb(100%, 100%, 100%)" d="M 2980.691406 4689.019531 C 2997.578125 4689.019531 3010.070312 4685.050781 3018.199219 4677.089844 C 3026.308594 4669.128906 3030.328125 4657.890625 3030.328125 4643.339844 C 3030.328125 4628.789062 3026.050781 4618.480469 3017.441406 4612.558594 C 3008.800781 4606.609375 2996.578125 4603.609375 2980.691406 4603.609375 L 2944.960938 4603.609375 L 2944.960938 4689.019531 Z M 2859.570312 4536.101562 L 2984.648438 4536.101562 C 3001.878906 4536.101562 3018.328125 4537.820312 3034.070312 4541.308594 C 3049.78125 4544.769531 3063.539062 4550.75 3075.289062 4559.191406 C 3087.050781 4567.609375 3096.371094 4578.699219 3103.351562 4592.429688 C 3110.289062 4606.199219 3113.75 4623.148438 3113.75 4643.339844 C 3113.75 4663.210938 3110.210938 4680.25 3103.101562 4694.449219 C 3095.960938 4708.71875 3086.46875 4720.371094 3074.539062 4729.449219 C 3062.609375 4738.550781 3048.878906 4745.398438 3033.328125 4749.839844 C 3017.769531 4754.308594 3001.550781 4756.519531 2984.648438 4756.519531 L 2944.960938 4756.519531 L 2944.960938 4858.828125 L 2859.570312 4858.828125 L 2859.570312 4536.101562 "/>
  <path fill="rgb(100%, 100%, 100%)" d="M 3135.390625 4536.109375 L 3343.921875 4536.109375 L 3343.921875 4607.578125 L 3220.769531 4607.578125 L 3220.769531 4658.210938 L 3326.03125 4658.210938 L 3326.03125 4729.71875 L 3220.769531 4729.71875 L 3220.769531 4787.339844 L 3348.878906 4787.339844 L 3348.878906 4858.828125 L 3135.390625 4858.828125 L 3135.390625 4536.109375 "/>
  <path fill="rgb(100%, 100%, 100%)" d="M 3372.449219 4536.109375 L 3460.828125 4536.109375 L 3511.421875 4670.128906 L 3529.320312 4722.761719 L 3531.308594 4722.761719 L 3549.160156 4670.128906 L 3597.851562 4536.109375 L 3686.179688 4536.109375 L 3686.179688 4858.828125 L 3606.769531 4858.828125 L 3606.769531 4763.488281 C 3606.769531 4755.210938 3607.191406 4746.109375 3608.03125 4736.171875 C 3608.828125 4726.25 3609.738281 4716.058594 3610.75 4705.640625 C 3611.75 4695.238281 3612.871094 4685.058594 3614.210938 4675.140625 C 3615.550781 4665.191406 3616.699219 4656.238281 3617.671875 4648.269531 L 3615.71875 4648.269531 L 3588.890625 4723.71875 L 3544.210938 4832.480469 L 3512.429688 4832.480469 L 3467.75 4723.71875 L 3441.929688 4648.269531 L 3439.929688 4648.269531 C 3440.941406 4656.238281 3442.109375 4665.191406 3443.398438 4675.140625 C 3444.75 4685.058594 3445.910156 4695.238281 3446.910156 4705.640625 C 3447.898438 4716.058594 3448.808594 4726.25 3449.648438 4736.171875 C 3450.46875 4746.109375 3450.878906 4755.210938 3450.878906 4763.488281 L 3450.878906 4858.828125 L 3372.449219 4858.828125 L 3372.449219 4536.109375 "/>
  <path fill="rgb(100%, 100%, 100%)" d="M 3829.941406 4793.28125 C 3863.058594 4793.28125 3879.601562 4781.019531 3879.601562 4756.519531 C 3879.601562 4744.628906 3875.558594 4736.03125 3867.429688 4730.730469 C 3859.359375 4725.441406 3846.851562 4722.761719 3829.941406 4722.761719 L 3795.21875 4722.761719 L 3795.21875 4793.28125 Z M 3824 4663.21875 C 3837.921875 4663.21875 3848.160156 4660.019531 3854.800781 4653.730469 C 3861.398438 4647.5 3864.71875 4639.378906 3864.71875 4629.429688 C 3864.71875 4619.488281 3861.398438 4612.378906 3854.800781 4608.070312 C 3848.160156 4603.789062 3837.921875 4601.648438 3824 4601.648438 L 3795.21875 4601.648438 L 3795.21875 4663.21875 Z M 3709.789062 4536.109375 L 3826 4536.109375 C 3842.910156 4536.109375 3858.738281 4537.359375 3873.648438 4539.800781 C 3888.550781 4542.308594 3901.429688 4546.5 3912.390625 4552.46875 C 3923.289062 4558.421875 3931.980469 4566.609375 3938.460938 4577.050781 C 3944.898438 4587.46875 3948.128906 4600.640625 3948.128906 4616.5 C 3948.128906 4623.460938 3947.128906 4630.488281 3945.140625 4637.609375 C 3943.148438 4644.761719 3939.929688 4651.511719 3935.460938 4657.988281 C 3931.011719 4664.449219 3925.339844 4670.140625 3918.578125 4675.128906 C 3911.808594 4680.058594 3903.75 4683.710938 3894.488281 4686.03125 L 3894.488281 4688.019531 C 3917.339844 4692.640625 3934.480469 4700.988281 3945.878906 4713.070312 C 3957.289062 4725.21875 3963.019531 4741.960938 3963.019531 4763.46875 C 3963.019531 4780.050781 3959.609375 4794.378906 3952.859375 4806.460938 C 3946.070312 4818.53125 3936.929688 4828.449219 3925.511719 4836.269531 C 3914.121094 4843.988281 3900.609375 4849.71875 3885.070312 4853.351562 C 3869.519531 4856.988281 3853.121094 4858.820312 3835.890625 4858.820312 L 3709.789062 4858.820312 L 3709.789062 4536.109375 "/>
  <path fill="rgb(100%, 100%, 100%)" d="M 4071.808594 4683.070312 L 4102.601562 4683.070312 C 4136.96875 4683.070312 4154.199219 4668.800781 4154.199219 4640.328125 C 4154.199219 4626.429688 4149.808594 4616.851562 4141.078125 4611.550781 C 4132.300781 4606.261719 4119.480469 4603.601562 4102.601562 4603.601562 L 4071.808594 4603.601562 Z M 4160.171875 4858.820312 L 4104.570312 4750.601562 L 4071.808594 4750.601562 L 4071.808594 4858.820312 L 3986.421875 4858.820312 L 3986.421875 4536.109375 L 4108.550781 4536.109375 C 4125.75 4536.109375 4142.21875 4537.769531 4157.941406 4541.050781 C 4173.660156 4544.359375 4187.378906 4550 4199.148438 4557.921875 C 4210.890625 4565.898438 4220.25 4576.550781 4227.179688 4589.980469 C 4234.171875 4603.378906 4237.628906 4620.148438 4237.628906 4640.328125 C 4237.628906 4663.519531 4232.929688 4682.699219 4223.46875 4697.941406 C 4214.058594 4713.179688 4201.371094 4725.089844 4185.480469 4733.699219 L 4255.511719 4858.820312 L 4160.171875 4858.820312 "/>
  <path fill="rgb(100%, 100%, 100%)" d="M 4406.109375 4791.320312 C 4425.628906 4791.320312 4440.921875 4782.78125 4452.03125 4765.71875 C 4463.140625 4748.671875 4468.648438 4725.429688 4468.648438 4695.960938 C 4468.648438 4666.480469 4463.140625 4643.75 4452.03125 4627.671875 C 4440.921875 4611.648438 4425.628906 4603.609375 4406.109375 4603.609375 C 4386.589844 4603.609375 4371.238281 4611.648438 4360.191406 4627.671875 C 4349.078125 4643.75 4343.53125 4666.480469 4343.53125 4695.960938 C 4343.53125 4725.429688 4349.078125 4748.671875 4360.191406 4765.71875 C 4371.238281 4782.78125 4386.589844 4791.320312 4406.109375 4791.320312 M 4406.109375 4864.78125 C 4383.589844 4864.78125 4363.160156 4860.929688 4344.800781 4853.339844 C 4326.429688 4845.75 4310.710938 4834.730469 4297.628906 4820.351562 C 4284.53125 4805.910156 4274.371094 4788.230469 4267.089844 4767.21875 C 4259.820312 4746.179688 4256.148438 4722.449219 4256.148438 4695.960938 C 4256.148438 4669.480469 4259.820312 4645.890625 4267.089844 4625.179688 C 4274.371094 4604.539062 4284.53125 4587.160156 4297.628906 4573.078125 C 4310.710938 4559.03125 4326.429688 4548.289062 4344.800781 4541.050781 C 4363.160156 4533.738281 4383.589844 4530.109375 4406.109375 4530.109375 C 4428.25 4530.109375 4448.640625 4533.738281 4467.160156 4541.050781 C 4485.710938 4548.289062 4501.511719 4559.101562 4514.589844 4573.339844 C 4527.691406 4587.570312 4537.851562 4604.929688 4545.121094 4625.460938 C 4552.398438 4645.980469 4556.058594 4669.480469 4556.058594 4695.960938 C 4556.058594 4722.449219 4552.398438 4746.179688 4545.121094 4767.21875 C 4537.851562 4788.230469 4527.691406 4805.910156 4514.589844 4820.351562 C 4501.511719 4834.730469 4485.710938 4845.75 4467.160156 4853.339844 C 4448.640625 4860.929688 4428.25 4864.78125 4406.109375 4864.78125 "/>
  <path fill="rgb(100%, 100%, 100%)" d="M 4578.878906 4536.109375 L 4664.269531 4536.109375 L 4664.269531 4682.660156 L 4666.238281 4682.660156 L 4747.679688 4536.109375 L 4841.019531 4536.109375 L 4744.710938 4693.558594 L 4842.148438 4858.828125 L 4748.820312 4858.828125 L 4664.269531 4708.578125 L 4664.269531 4858.828125 L 4578.878906 4858.828125 L 4578.878906 4536.109375 "/>
  <path fill="rgb(100%, 100%, 100%)" d="M 4864.671875 4536.109375 L 5073.199219 4536.109375 L 5073.199219 4607.578125 L 4950.058594 4607.578125 L 4950.058594 4658.210938 L 5055.339844 4658.210938 L 5055.339844 4729.71875 L 4950.058594 4729.71875 L 4950.058594 4787.339844 L 5078.191406 4787.339844 L 5078.191406 4858.828125 L 4864.671875 4858.828125 L 4864.671875 4536.109375 "/>
</g>
</svg>