<svg xmlns="http://www.w3.org/2000/svg" viewBox="0 0 2473.82 1975.44" aria-label="Olive Downs Complex sub-brand on dark">
<g transform="translate(-889.07,-4315.35)">
  <path fill="rgb(85.040283%, 12.998962%, 17.454529%)" d="M 1228.230469 4575.75 L 1203.160156 4586.128906 L 1203.160156 4565.378906 L 1217.839844 4550.679688 Z M 1163.710938 4545.230469 L 1149.640625 4531.160156 L 1168 4523.558594 L 1204.46875 4538.648438 L 1208.671875 4528.519531 L 1215.171875 4544.210938 L 1203.160156 4556.230469 L 1203.160156 4545.230469 Z M 1196.699219 4562.691406 L 1188.929688 4570.460938 L 1170.171875 4551.699219 L 1196.699219 4551.699219 Z M 1196.699219 4571.859375 L 1196.699219 4588.820312 L 1180.988281 4595.320312 L 1185.199219 4585.171875 L 1148.738281 4570.058594 L 1141.128906 4551.699219 L 1161.019531 4551.699219 L 1188.929688 4579.609375 L 1196.699219 4571.851562 Z M 1196.699219 4622.949219 L 1169.539062 4622.949219 L 1177.480469 4603.78125 L 1196.699219 4595.808594 Z M 1152.238281 4578.511719 L 1176.75 4588.660156 L 1172.53125 4598.828125 L 1162.398438 4603.03125 Z M 1162.539062 4622.949219 L 1145.558594 4622.949219 L 1153.320312 4615.199219 L 1125.410156 4587.28125 L 1125.410156 4567.410156 L 1143.769531 4575.011719 L 1158.898438 4611.480469 L 1169.019531 4607.28125 Z M 1149.460938 4654.511719 L 1124.398438 4644.121094 L 1139.089844 4629.429688 L 1159.859375 4629.429688 Z M 1117.921875 4641.441406 L 1102.238281 4634.960938 L 1112.371094 4630.75 L 1097.269531 4594.300781 L 1104.890625 4575.921875 L 1118.949219 4589.980469 L 1118.949219 4629.429688 L 1129.941406 4629.429688 Z M 1093.78125 4665.589844 L 1074.578125 4646.390625 L 1093.78125 4638.46875 L 1112.96875 4646.390625 Z M 1057.621094 4629.429688 L 1068.609375 4629.429688 L 1068.609375 4589.980469 L 1082.671875 4575.921875 L 1090.28125 4594.289062 L 1075.160156 4630.75 L 1085.308594 4634.960938 L 1069.640625 4641.441406 Z M 1038.070312 4654.511719 L 1027.699219 4629.429688 L 1048.480469 4629.429688 L 1063.160156 4644.121094 Z M 1062.140625 4596.441406 L 1062.140625 4622.949219 L 1051.160156 4622.949219 L 1043.390625 4615.199219 Z M 1018.53125 4607.28125 L 1028.671875 4611.480469 L 1043.769531 4575.03125 L 1062.140625 4567.410156 L 1062.140625 4587.28125 L 1034.238281 4615.199219 L 1042 4622.949219 L 1025.011719 4622.949219 Z M 990.855469 4622.949219 L 990.855469 4595.808594 L 1010.058594 4603.78125 L 1018.019531 4622.949219 Z M 984.394531 4556.21875 L 972.375 4544.210938 L 978.886719 4528.511719 L 983.082031 4538.648438 L 1019.550781 4523.558594 L 1037.910156 4531.160156 L 1023.859375 4545.230469 L 984.394531 4545.230469 Z M 984.394531 4586.128906 L 959.300781 4575.75 L 969.695312 4550.671875 L 984.394531 4565.378906 Z M 948.222656 4520.058594 L 967.421875 4500.859375 L 975.375 4520.058594 L 967.421875 4539.25 Z M 959.300781 4464.359375 L 984.394531 4453.980469 L 984.394531 4474.738281 L 969.695312 4489.441406 Z M 1011.089844 4520.058594 L 986.585938 4530.199219 L 982.382812 4520.058594 L 986.585938 4509.910156 Z M 1023.859375 4494.859375 L 1037.921875 4508.929688 L 1019.558594 4516.550781 L 983.082031 4501.449219 L 978.886719 4511.601562 L 972.375 4495.910156 L 984.394531 4483.898438 L 984.394531 4494.859375 Z M 990.855469 4477.429688 L 998.636719 4469.648438 L 1017.378906 4488.378906 L 990.855469 4488.378906 Z M 990.855469 4468.269531 L 990.855469 4451.300781 L 1006.558594 4444.78125 L 1002.351562 4454.929688 L 1038.820312 4470.03125 L 1046.429688 4488.378906 L 1026.539062 4488.378906 L 998.636719 4460.5 L 990.855469 4468.28125 Z M 990.855469 4417.140625 L 1018.019531 4417.140625 L 1010.058594 4436.328125 L 990.855469 4444.300781 Z M 1035.300781 4461.578125 L 1010.808594 4451.429688 L 1015.019531 4441.28125 L 1025.179688 4437.089844 Z M 1025.011719 4417.140625 L 1042.011719 4417.140625 L 1034.238281 4424.921875 L 1062.140625 4452.820312 L 1062.140625 4472.699219 L 1043.769531 4465.078125 L 1028.671875 4428.628906 L 1018.519531 4432.839844 Z M 1038.070312 4385.570312 L 1063.160156 4395.980469 L 1048.480469 4410.660156 L 1027.699219 4410.660156 Z M 1069.640625 4398.660156 L 1085.328125 4405.148438 L 1075.160156 4409.359375 L 1090.28125 4445.828125 L 1082.671875 4464.191406 L 1068.609375 4450.140625 L 1068.609375 4410.660156 L 1057.621094 4410.660156 Z M 1093.78125 4374.5 L 1112.96875 4393.691406 L 1093.78125 4401.648438 L 1074.578125 4393.691406 Z M 1129.941406 4410.660156 L 1118.949219 4410.660156 L 1118.949219 4450.140625 L 1104.890625 4464.191406 L 1097.269531 4445.820312 L 1112.371094 4409.359375 L 1102.230469 4405.148438 L 1117.921875 4398.660156 Z M 1149.460938 4385.570312 L 1159.859375 4410.660156 L 1139.089844 4410.660156 L 1124.398438 4395.96875 Z M 1125.410156 4443.671875 L 1125.410156 4417.140625 L 1136.410156 4417.140625 L 1144.171875 4424.921875 Z M 1169.050781 4432.828125 L 1158.898438 4428.628906 L 1143.769531 4465.078125 L 1125.410156 4472.699219 L 1125.410156 4452.820312 L 1153.320312 4424.921875 L 1145.550781 4417.140625 L 1162.539062 4417.140625 Z M 1196.699219 4417.140625 L 1196.699219 4444.300781 L 1177.511719 4436.328125 L 1169.539062 4417.140625 Z M 1196.699219 4477.421875 L 1196.699219 4488.378906 L 1170.179688 4488.378906 L 1188.929688 4469.648438 Z M 1152.238281 4461.578125 L 1162.398438 4437.089844 L 1172.550781 4441.28125 L 1176.75 4451.441406 Z M 1185.199219 4454.941406 L 1181.011719 4444.789062 L 1196.699219 4451.300781 L 1196.699219 4468.261719 L 1188.929688 4460.5 L 1161.019531 4488.378906 L 1141.128906 4488.378906 L 1148.738281 4470.03125 Z M 1083.621094 4412.859375 L 1093.769531 4408.648438 L 1103.921875 4412.859375 L 1093.78125 4437.359375 Z M 1062.140625 4443.671875 L 1043.390625 4424.921875 L 1051.160156 4417.140625 L 1062.140625 4417.140625 Z M 990.855469 4562.679688 L 990.855469 4551.699219 L 1017.390625 4551.699219 L 998.636719 4570.460938 Z M 1002.351562 4585.171875 L 1006.558594 4595.320312 L 990.855469 4588.820312 L 990.855469 4571.839844 L 998.636719 4579.609375 L 1026.539062 4551.699219 L 1046.429688 4551.699219 L 1038.820312 4570.078125 Z M 1035.308594 4578.53125 L 1025.179688 4603.03125 L 1015.019531 4598.828125 L 1010.808594 4588.660156 Z M 1103.921875 4627.25 L 1093.769531 4631.449219 L 1083.621094 4627.25 L 1093.78125 4602.75 Z M 1125.410156 4596.441406 L 1144.171875 4615.199219 L 1136.410156 4622.949219 L 1125.410156 4622.949219 Z M 1154.550781 4545.230469 L 1131.441406 4545.230469 L 1140.28125 4566.558594 L 1118.949219 4557.730469 L 1118.949219 4580.820312 L 1102.621094 4564.511719 L 1093.78125 4585.839844 L 1084.941406 4564.511719 L 1068.609375 4580.820312 L 1068.609375 4557.730469 L 1047.269531 4566.570312 L 1056.109375 4545.230469 L 1033 4545.230469 L 1049.328125 4528.878906 L 1028 4520.050781 L 1049.320312 4511.210938 L 1033 4494.859375 L 1056.109375 4494.859375 L 1047.269531 4473.550781 L 1068.609375 4482.378906 L 1068.609375 4459.28125 L 1084.941406 4475.609375 L 1093.78125 4454.269531 L 1102.621094 4475.609375 L 1118.949219 4459.28125 L 1118.949219 4482.378906 L 1140.269531 4473.550781 L 1131.441406 4494.859375 L 1154.550781 4494.859375 L 1138.210938 4511.210938 L 1159.550781 4520.050781 L 1138.210938 4528.878906 Z M 1205.171875 4520.058594 L 1200.980469 4530.199219 L 1176.46875 4520.058594 L 1200.980469 4509.910156 Z M 1203.160156 4483.890625 L 1215.171875 4495.910156 L 1208.671875 4511.601562 L 1204.46875 4501.449219 L 1168 4516.550781 L 1149.640625 4508.929688 L 1163.710938 4494.859375 L 1203.160156 4494.859375 Z M 1203.160156 4453.980469 L 1228.230469 4464.359375 L 1217.839844 4489.441406 L 1203.160156 4474.71875 Z M 1239.308594 4520.058594 L 1220.121094 4539.25 L 1212.179688 4520.058594 L 1220.121094 4500.859375 Z M 1248.460938 4520.058594 L 1222.789062 4494.390625 L 1236.691406 4460.859375 L 1203.160156 4446.960938 L 1203.160156 4410.660156 L 1166.859375 4410.660156 L 1152.960938 4377.121094 L 1119.449219 4391.019531 L 1093.78125 4365.351562 L 1068.109375 4391.019531 L 1034.570312 4377.121094 L 1020.691406 4410.660156 L 984.394531 4410.660156 L 984.394531 4446.960938 L 950.84375 4460.859375 L 964.738281 4494.390625 L 939.074219 4520.058594 L 964.738281 4545.71875 L 950.84375 4579.25 L 984.394531 4593.140625 L 984.394531 4629.429688 L 1020.691406 4629.429688 L 1034.570312 4662.960938 L 1068.109375 4649.078125 L 1093.78125 4674.730469 L 1119.449219 4649.078125 L 1152.960938 4662.960938 L 1166.859375 4629.429688 L 1203.160156 4629.429688 L 1203.160156 4593.140625 L 1236.691406 4579.25 L 1222.789062 4545.71875 L 1248.460938 4520.058594 "/>
  <path fill="rgb(100%, 100%, 100%)" d="M 1390.929688 4515.78125 C 1398.78125 4515.78125 1404.589844 4513.929688 1408.359375 4510.230469 C 1412.140625 4506.53125 1414 4501.308594 1414 4494.550781 C 1414 4487.78125 1412.011719 4482.988281 1408.011719 4480.238281 C 1404 4477.480469 1398.320312 4476.078125 1390.929688 4476.078125 L 1374.328125 4476.078125 L 1374.328125 4515.78125 Z M 1334.640625 4444.710938 L 1392.769531 4444.710938 C 1400.78125 4444.710938 1408.429688 4445.511719 1415.738281 4447.128906 C 1423.039062 4448.738281 1429.441406 4451.519531 1434.898438 4455.441406 C 1440.359375 4459.351562 1444.691406 4464.5 1447.941406 4470.890625 C 1451.160156 4477.289062 1452.769531 4485.160156 1452.769531 4494.550781 C 1452.769531 4503.78125 1451.128906 4511.699219 1447.820312 4518.300781 C 1444.5 4524.929688 1440.089844 4530.351562 1434.550781 4534.570312 C 1429.011719 4538.800781 1422.621094 4541.980469 1415.398438 4544.050781 C 1408.171875 4546.121094 1400.628906 4547.148438 1392.769531 4547.148438 L 1374.328125 4547.148438 L 1374.328125 4594.691406 L 1334.640625 4594.691406 L 1334.640625 4444.710938 "/>
  <path fill="rgb(100%, 100%, 100%)" d="M 1462.828125 4444.710938 L 1559.738281 4444.710938 L 1559.738281 4477.929688 L 1502.511719 4477.929688 L 1502.511719 4501.460938 L 1551.429688 4501.460938 L 1551.429688 4534.691406 L 1502.511719 4534.691406 L 1502.511719 4561.46875 L 1562.050781 4561.46875 L 1562.050781 4594.699219 L 1462.828125 4594.699219 L 1462.828125 4444.710938 "/>
  <path fill="rgb(100%, 100%, 100%)" d="M 1573 4444.710938 L 1614.078125 4444.710938 L 1637.589844 4507 L 1645.910156 4531.460938 L 1646.828125 4531.460938 L 1655.128906 4507 L 1677.761719 4444.710938 L 1718.808594 4444.710938 L 1718.808594 4594.699219 L 1681.898438 4594.699219 L 1681.898438 4550.390625 C 1681.898438 4546.539062 1682.101562 4542.308594 1682.488281 4537.691406 C 1682.859375 4533.078125 1683.28125 4528.339844 1683.75 4523.5 C 1684.21875 4518.671875 1684.738281 4513.941406 1685.359375 4509.328125 C 1685.980469 4504.699219 1686.519531 4500.539062 1686.96875 4496.839844 L 1686.058594 4496.839844 L 1673.589844 4531.910156 L 1652.828125 4582.449219 L 1638.058594 4582.449219 L 1617.289062 4531.910156 L 1605.289062 4496.839844 L 1604.371094 4496.839844 C 1604.828125 4500.539062 1605.378906 4504.699219 1605.96875 4509.328125 C 1606.609375 4513.941406 1607.140625 4518.671875 1607.609375 4523.5 C 1608.070312 4528.339844 1608.488281 4533.078125 1608.878906 4537.691406 C 1609.261719 4542.308594 1609.449219 4546.539062 1609.449219 4550.390625 L 1609.449219 4594.699219 L 1573 4594.699219 L 1573 4444.710938 "/>
  <path fill="rgb(100%, 100%, 100%)" d="M 1785.621094 4564.230469 C 1801.011719 4564.230469 1808.699219 4558.53125 1808.699219 4547.148438 C 1808.699219 4541.621094 1806.820312 4537.621094 1803.050781 4535.160156 C 1799.289062 4532.699219 1793.480469 4531.460938 1785.621094 4531.460938 L 1769.480469 4531.460938 L 1769.480469 4564.230469 Z M 1782.859375 4503.789062 C 1789.328125 4503.789062 1794.089844 4502.300781 1797.171875 4499.378906 C 1800.238281 4496.480469 1801.78125 4492.710938 1801.78125 4488.078125 C 1801.78125 4483.460938 1800.238281 4480.160156 1797.171875 4478.148438 C 1794.089844 4476.171875 1789.328125 4475.171875 1782.859375 4475.171875 L 1769.480469 4475.171875 L 1769.480469 4503.789062 Z M 1729.78125 4444.710938 L 1783.789062 4444.710938 C 1791.648438 4444.710938 1799.011719 4445.289062 1805.929688 4446.429688 C 1812.859375 4447.589844 1818.839844 4449.539062 1823.941406 4452.320312 C 1829.011719 4455.078125 1833.039062 4458.890625 1836.050781 4463.738281 C 1839.050781 4468.578125 1840.550781 4474.699219 1840.550781 4482.070312 C 1840.550781 4485.308594 1840.078125 4488.570312 1839.160156 4491.890625 C 1838.230469 4495.210938 1836.738281 4498.351562 1834.660156 4501.359375 C 1832.589844 4504.359375 1829.960938 4507 1826.820312 4509.320312 C 1823.671875 4511.609375 1819.929688 4513.308594 1815.621094 4514.390625 L 1815.621094 4515.308594 C 1826.238281 4517.460938 1834.199219 4521.339844 1839.5 4526.949219 C 1844.800781 4532.601562 1847.46875 4540.378906 1847.46875 4550.378906 C 1847.46875 4558.078125 1845.890625 4564.738281 1842.75 4570.359375 C 1839.589844 4575.96875 1835.339844 4580.578125 1830.03125 4584.210938 C 1824.738281 4587.800781 1818.460938 4590.460938 1811.238281 4592.148438 C 1804.011719 4593.839844 1796.390625 4594.691406 1788.390625 4594.691406 L 1729.78125 4594.691406 L 1729.78125 4444.710938 "/>
  <path fill="rgb(100%, 100%, 100%)" d="M 1898.03125 4513.011719 L 1912.339844 4513.011719 C 1928.308594 4513.011719 1936.320312 4506.378906 1936.320312 4493.148438 C 1936.320312 4486.691406 1934.28125 4482.238281 1930.21875 4479.769531 C 1926.140625 4477.320312 1920.179688 4476.078125 1912.339844 4476.078125 L 1898.03125 4476.078125 Z M 1939.089844 4594.691406 L 1913.261719 4544.398438 L 1898.03125 4544.398438 L 1898.03125 4594.691406 L 1858.339844 4594.691406 L 1858.339844 4444.71875 L 1915.109375 4444.71875 C 1923.101562 4444.71875 1930.75 4445.480469 1938.058594 4447.011719 C 1945.359375 4448.550781 1951.738281 4451.171875 1957.210938 4454.851562 C 1962.671875 4458.558594 1967.019531 4463.511719 1970.230469 4469.75 C 1973.488281 4475.980469 1975.089844 4483.769531 1975.089844 4493.148438 C 1975.089844 4503.929688 1972.910156 4512.839844 1968.511719 4519.921875 C 1964.140625 4527.011719 1958.238281 4532.539062 1950.859375 4536.539062 L 1983.398438 4594.691406 L 1939.089844 4594.691406 "/>
  <path fill="rgb(100%, 100%, 100%)" d="M 2053.390625 4563.320312 C 2062.460938 4563.320312 2069.570312 4559.351562 2074.738281 4551.421875 C 2079.898438 4543.5 2082.460938 4532.699219 2082.460938 4519 C 2082.460938 4505.300781 2079.898438 4494.738281 2074.738281 4487.261719 C 2069.570312 4479.820312 2062.460938 4476.078125 2053.390625 4476.078125 C 2044.320312 4476.078125 2037.191406 4479.820312 2032.050781 4487.261719 C 2026.890625 4494.738281 2024.308594 4505.300781 2024.308594 4519 C 2024.308594 4532.699219 2026.890625 4543.5 2032.050781 4551.421875 C 2037.191406 4559.351562 2044.320312 4563.320312 2053.390625 4563.320312 M 2053.390625 4597.460938 C 2042.929688 4597.460938 2033.429688 4595.671875 2024.898438 4592.140625 C 2016.359375 4588.621094 2009.058594 4583.5 2002.980469 4576.808594 C 1996.890625 4570.101562 1992.171875 4561.890625 1988.789062 4552.121094 C 1985.410156 4542.339844 1983.699219 4531.320312 1983.699219 4519 C 1983.699219 4506.699219 1985.410156 4495.730469 1988.789062 4486.109375 C 1992.171875 4476.519531 1996.890625 4468.441406 2002.980469 4461.890625 C 2009.058594 4455.359375 2016.359375 4450.371094 2024.898438 4447.011719 C 2033.429688 4443.609375 2042.929688 4441.921875 2053.390625 4441.921875 C 2063.679688 4441.921875 2073.160156 4443.609375 2081.769531 4447.011719 C 2090.390625 4450.371094 2097.730469 4455.398438 2103.808594 4462.011719 C 2109.898438 4468.628906 2114.621094 4476.699219 2118 4486.238281 C 2121.378906 4495.769531 2123.078125 4506.699219 2123.078125 4519 C 2123.078125 4531.320312 2121.378906 4542.339844 2118 4552.121094 C 2114.621094 4561.890625 2109.898438 4570.101562 2103.808594 4576.808594 C 2097.730469 4583.5 2090.390625 4588.621094 2081.769531 4592.140625 C 2073.160156 4595.671875 2063.679688 4597.460938 2053.390625 4597.460938 "/>
  <path fill="rgb(100%, 100%, 100%)" d="M 2133.691406 4444.710938 L 2173.371094 4444.710938 L 2173.371094 4512.820312 L 2174.289062 4512.820312 L 2212.140625 4444.710938 L 2255.519531 4444.710938 L 2210.761719 4517.890625 L 2256.039062 4594.699219 L 2212.671875 4594.699219 L 2173.371094 4524.871094 L 2173.371094 4594.699219 L 2133.691406 4594.699219 L 2133.691406 4444.710938 "/>
  <path fill="rgb(100%, 100%, 100%)" d="M 2266.511719 4444.710938 L 2363.421875 4444.710938 L 2363.421875 4477.929688 L 2306.191406 4477.929688 L 2306.191406 4501.460938 L 2355.121094 4501.460938 L 2355.121094 4534.691406 L 2306.191406 4534.691406 L 2306.191406 4561.46875 L 2365.738281 4561.46875 L 2365.738281 4594.699219 L 2266.511719 4594.699219 L 2266.511719 4444.710938 "/>
  <path fill="rgb(100%, 100%, 100%)" d="M 1463.988281 5049.730469 C 1483.03125 5049.730469 1497.949219 5041.339844 1508.761719 5024.558594 C 1519.570312 5007.78125 1524.980469 4985.191406 1524.980469 4956.800781 C 1524.980469 4928.078125 1519.570312 4905.898438 1508.761719 4890.25 C 1497.949219 4874.601562 1483.03125 4866.769531 1463.988281 4866.769531 C 1445.269531 4866.769531 1430.429688 4874.601562 1419.460938 4890.25 C 1408.488281 4905.898438 1403 4928.078125 1403 4956.800781 C 1403 4985.191406 1408.488281 5007.78125 1419.460938 5024.558594 C 1430.429688 5041.339844 1445.269531 5049.730469 1463.988281 5049.730469 Z M 1463.988281 5121.359375 C 1434.949219 5121.359375 1409.460938 5114.828125 1387.519531 5101.761719 C 1365.570312 5088.691406 1348.46875 5069.898438 1336.210938 5045.371094 C 1323.949219 5020.851562 1317.820312 4991.328125 1317.820312 4956.800781 C 1317.820312 4922.269531 1323.949219 4892.988281 1336.210938 4868.949219 C 1348.46875 4844.910156 1365.570312 4826.601562 1387.519531 4814.011719 C 1409.460938 4801.429688 1434.949219 4795.140625 1463.988281 4795.140625 C 1493.03125 4795.140625 1518.519531 4801.429688 1540.460938 4814.011719 C 1562.398438 4826.601562 1579.5 4844.910156 1591.769531 4868.949219 C 1604.03125 4892.988281 1610.160156 4922.269531 1610.160156 4956.800781 C 1610.160156 4991.328125 1604.03125 5020.851562 1591.769531 5045.371094 C 1579.5 5069.898438 1562.398438 5088.691406 1540.460938 5101.761719 C 1518.519531 5114.828125 1493.03125 5121.359375 1463.988281 5121.359375 "/>
  <path fill="rgb(100%, 100%, 100%)" d="M 1656.621094 5115.550781 L 1656.621094 4800.941406 L 1739.871094 4800.941406 L 1739.871094 5045.851562 L 1858.941406 5045.851562 L 1858.941406 5115.550781 L 1656.621094 5115.550781 "/>
  <path fill="rgb(100%, 100%, 100%)" d="M 1903.46875 5115.550781 L 1903.46875 4800.941406 L 1986.71875 4800.941406 L 1986.71875 5115.550781 L 1903.46875 5115.550781 "/>
  <path fill="rgb(100%, 100%, 100%)" d="M 2099.96875 5115.550781 L 2007.039062 4800.941406 L 2095.128906 4800.941406 L 2128.039062 4938.398438 C 2132.558594 4955.191406 2136.511719 4971.730469 2139.898438 4988.019531 C 2143.289062 5004.308594 2147.078125 5021.011719 2151.28125 5038.109375 L 2153.210938 5038.109375 C 2157.730469 5021.011719 2161.679688 5004.308594 2165.070312 4988.019531 C 2168.460938 4971.730469 2172.25 4955.191406 2176.441406 4938.398438 L 2208.390625 4800.941406 L 2293.578125 4800.941406 L 2200.648438 5115.550781 L 2099.96875 5115.550781 "/>
  <path fill="rgb(100%, 100%, 100%)" d="M 2313.898438 5115.550781 L 2313.898438 4800.941406 L 2517.179688 4800.941406 L 2517.179688 4870.640625 L 2397.148438 4870.640625 L 2397.148438 4920.011719 L 2499.761719 4920.011719 L 2499.761719 4989.710938 L 2397.148438 4989.710938 L 2397.148438 5045.851562 L 2522.019531 5045.851562 L 2522.019531 5115.550781 L 2313.898438 5115.550781 "/>
  <path fill="rgb(100%, 100%, 100%)" d="M 1414.621094 5387.570312 L 1419.460938 5387.570312 C 1434.621094 5387.570312 1448.339844 5384.988281 1460.601562 5379.820312 C 1472.859375 5374.671875 1482.621094 5365.46875 1489.890625 5352.230469 C 1497.148438 5339.011719 1500.78125 5320.128906 1500.78125 5295.601562 C 1500.78125 5271.089844 1497.148438 5252.449219 1489.890625 5239.699219 C 1482.621094 5226.960938 1472.859375 5218.25 1460.601562 5213.558594 C 1448.339844 5208.890625 1434.621094 5206.550781 1419.460938 5206.550781 L 1414.621094 5206.550781 Z M 1331.371094 5454.359375 L 1331.371094 5139.75 L 1424.300781 5139.75 C 1456.25 5139.75 1484.390625 5145 1508.761719 5155.480469 C 1533.121094 5165.96875 1552.078125 5182.671875 1565.628906 5205.578125 C 1579.191406 5228.488281 1585.960938 5258.5 1585.960938 5295.601562 C 1585.960938 5332.71875 1579.191406 5362.96875 1565.628906 5386.359375 C 1552.078125 5409.761719 1533.519531 5426.941406 1509.96875 5437.898438 C 1486.410156 5448.878906 1459.46875 5454.359375 1429.140625 5454.359375 L 1331.371094 5454.359375 "/>
  <path fill="rgb(100%, 100%, 100%)" d="M 1765.039062 5388.53125 C 1784.078125 5388.53125 1799 5380.148438 1809.820312 5363.371094 C 1820.621094 5346.589844 1826.03125 5324 1826.03125 5295.601562 C 1826.03125 5266.890625 1820.621094 5244.710938 1809.820312 5229.050781 C 1799 5213.410156 1784.078125 5205.578125 1765.039062 5205.578125 C 1746.328125 5205.578125 1731.480469 5213.410156 1720.519531 5229.050781 C 1709.539062 5244.710938 1704.058594 5266.890625 1704.058594 5295.601562 C 1704.058594 5324 1709.539062 5346.589844 1720.519531 5363.371094 C 1731.480469 5380.148438 1746.328125 5388.53125 1765.039062 5388.53125 Z M 1765.039062 5460.171875 C 1736 5460.171875 1710.511719 5453.628906 1688.570312 5440.570312 C 1666.621094 5427.5 1649.53125 5408.699219 1637.269531 5384.179688 C 1625 5359.660156 1618.871094 5330.140625 1618.871094 5295.601562 C 1618.871094 5261.078125 1625 5231.800781 1637.269531 5207.761719 C 1649.53125 5183.71875 1666.621094 5165.410156 1688.570312 5152.820312 C 1710.511719 5140.238281 1736 5133.941406 1765.039062 5133.941406 C 1794.089844 5133.941406 1819.570312 5140.238281 1841.519531 5152.820312 C 1863.460938 5165.410156 1880.558594 5183.71875 1892.820312 5207.761719 C 1905.078125 5231.800781 1911.21875 5261.078125 1911.21875 5295.601562 C 1911.21875 5330.140625 1905.078125 5359.660156 1892.820312 5384.179688 C 1880.558594 5408.699219 1863.460938 5427.5 1841.519531 5440.570312 C 1819.570312 5453.628906 1794.089844 5460.171875 1765.039062 5460.171875 "/>
  <path fill="rgb(100%, 100%, 100%)" d="M 1982.839844 5454.359375 L 1927.671875 5139.75 L 2012.851562 5139.75 L 2030.28125 5277.210938 C 2031.890625 5293.671875 2033.660156 5310.128906 2035.601562 5326.578125 C 2037.539062 5343.039062 2039.308594 5359.488281 2040.921875 5375.949219 L 2042.859375 5375.949219 C 2045.761719 5359.488281 2048.671875 5342.960938 2051.570312 5326.339844 C 2054.480469 5309.71875 2057.378906 5293.351562 2060.28125 5277.210938 L 2090.289062 5139.75 L 2159.988281 5139.75 L 2190 5277.210938 C 2192.898438 5293.03125 2195.808594 5309.238281 2198.710938 5325.859375 C 2201.621094 5342.480469 2204.519531 5359.179688 2207.421875 5375.949219 L 2209.359375 5375.949219 C 2210.96875 5359.179688 2212.75 5342.480469 2214.679688 5325.859375 C 2216.621094 5309.238281 2218.390625 5293.03125 2220.011719 5277.210938 L 2237.429688 5139.75 L 2316.808594 5139.75 L 2264.539062 5454.359375 L 2159.019531 5454.359375 L 2134.820312 5329.488281 C 2132.558594 5317.230469 2130.46875 5304.800781 2128.53125 5292.21875 C 2126.589844 5279.628906 2124.820312 5267.53125 2123.210938 5255.921875 L 2121.269531 5255.921875 C 2119.648438 5267.53125 2117.960938 5279.628906 2116.191406 5292.21875 C 2114.410156 5304.800781 2112.230469 5317.230469 2109.648438 5329.488281 L 2086.421875 5454.359375 L 1982.839844 5454.359375 "/>
  <path fill="rgb(100%, 100%, 100%)" d="M 2346.808594 5454.359375 L 2346.808594 5139.75 L 2432 5139.75 L 2501.699219 5280.121094 L 2531.710938 5350.78125 L 2533.640625 5350.78125 C 2531.710938 5333.679688 2529.449219 5314.238281 2526.871094 5292.460938 C 2524.28125 5270.679688 2522.988281 5250.109375 2522.988281 5230.75 L 2522.988281 5139.75 L 2602.371094 5139.75 L 2602.371094 5454.359375 L 2517.191406 5454.359375 L 2447.488281 5313.511719 L 2417.480469 5243.328125 L 2415.539062 5243.328125 C 2417.480469 5261.078125 2419.730469 5280.679688 2422.320312 5302.140625 C 2424.898438 5323.601562 2426.191406 5344.011719 2426.191406 5363.371094 L 2426.191406 5454.359375 L 2346.808594 5454.359375 "/>
  <path fill="rgb(100%, 100%, 100%)" d="M 2762.101562 5460.171875 C 2742.410156 5460.171875 2721.921875 5456.460938 2700.628906 5449.039062 C 2679.328125 5441.621094 2660.128906 5430.328125 2643.03125 5415.160156 L 2690.460938 5358.039062 C 2701.75 5367.078125 2713.941406 5374.421875 2727 5380.058594 C 2740.070312 5385.710938 2752.410156 5388.53125 2764.03125 5388.53125 C 2776.621094 5388.53125 2785.730469 5386.601562 2791.378906 5382.730469 C 2797.019531 5378.851562 2799.851562 5373.371094 2799.851562 5366.269531 C 2799.851562 5358.851562 2796.050781 5353.199219 2788.46875 5349.328125 C 2780.890625 5345.460938 2770.480469 5340.941406 2757.25 5335.78125 L 2718.050781 5319.320312 C 2701.269531 5312.550781 2686.511719 5301.898438 2673.761719 5287.378906 C 2661.011719 5272.859375 2654.640625 5254.308594 2654.640625 5231.71875 C 2654.640625 5213.648438 2659.640625 5197.269531 2669.648438 5182.589844 C 2679.648438 5167.910156 2693.441406 5156.128906 2711.03125 5147.261719 C 2728.609375 5138.378906 2748.859375 5133.941406 2771.78125 5133.941406 C 2789.839844 5133.941406 2808.148438 5137.421875 2826.710938 5144.351562 C 2845.261719 5151.289062 2861.800781 5161.859375 2876.320312 5176.050781 L 2834.699219 5228.328125 C 2824.050781 5220.910156 2813.800781 5215.261719 2803.960938 5211.390625 C 2794.121094 5207.511719 2783.390625 5205.578125 2771.78125 5205.578125 C 2761.769531 5205.578125 2753.78125 5207.359375 2747.820312 5210.898438 C 2741.839844 5214.460938 2738.859375 5219.78125 2738.859375 5226.878906 C 2738.859375 5234.300781 2743.050781 5240.03125 2751.449219 5244.058594 C 2759.828125 5248.101562 2771.121094 5252.851562 2785.328125 5258.339844 L 2823.558594 5273.339844 C 2843.238281 5281.078125 2858.410156 5291.898438 2869.058594 5305.769531 C 2879.710938 5319.648438 2885.03125 5337.558594 2885.03125 5359.488281 C 2885.03125 5377.238281 2880.269531 5393.78125 2870.761719 5409.109375 C 2861.230469 5424.429688 2847.28125 5436.78125 2828.890625 5446.128906 C 2810.5 5455.488281 2788.230469 5460.171875 2762.101562 5460.171875 "/>
  <path fill="rgb(100%, 100%, 100%)" d="M 1467.859375 5798.980469 C 1441.078125 5798.980469 1416.320312 5793.089844 1393.570312 5781.308594 C 1370.820312 5769.53125 1352.5 5751.710938 1338.628906 5727.828125 C 1324.75 5703.949219 1317.820312 5674.101562 1317.820312 5638.28125 C 1317.820312 5611.828125 1321.929688 5588.359375 1330.160156 5567.859375 C 1338.390625 5547.371094 1349.679688 5530.03125 1364.039062 5515.828125 C 1378.398438 5501.628906 1394.691406 5490.898438 1412.929688 5483.640625 C 1431.148438 5476.378906 1450.109375 5472.75 1469.800781 5472.75 C 1490.769531 5472.75 1509.558594 5476.871094 1526.191406 5485.101562 C 1542.800781 5493.320312 1556.601562 5503.089844 1567.570312 5514.378906 L 1524.011719 5567.621094 C 1516.261719 5560.839844 1508.28125 5555.28125 1500.050781 5550.921875 C 1491.820312 5546.558594 1482.378906 5544.390625 1471.730469 5544.390625 C 1459.46875 5544.390625 1448.089844 5548.019531 1437.609375 5555.28125 C 1427.121094 5562.539062 1418.738281 5572.941406 1412.441406 5586.5 C 1406.148438 5600.050781 1403 5616.351562 1403 5635.378906 C 1403 5664.75 1409.210938 5687.410156 1421.640625 5703.378906 C 1434.058594 5719.359375 1450.441406 5727.339844 1470.769531 5727.339844 C 1483.03125 5727.339844 1493.921875 5724.601562 1503.441406 5719.109375 C 1512.949219 5713.628906 1521.101562 5707.339844 1527.878906 5700.238281 L 1571.441406 5752.511719 C 1558.210938 5768 1542.71875 5779.621094 1524.980469 5787.359375 C 1507.230469 5795.101562 1488.191406 5798.980469 1467.859375 5798.980469 "/>
  <path fill="rgb(100%, 100%, 100%)" d="M 1718.578125 5727.339844 C 1737.621094 5727.339844 1752.539062 5718.960938 1763.351562 5702.171875 C 1774.160156 5685.398438 1779.570312 5662.808594 1779.570312 5634.410156 C 1779.570312 5605.699219 1774.160156 5583.519531 1763.351562 5567.859375 C 1752.539062 5552.210938 1737.621094 5544.390625 1718.578125 5544.390625 C 1699.859375 5544.390625 1685.019531 5552.210938 1674.050781 5567.859375 C 1663.078125 5583.519531 1657.601562 5605.699219 1657.601562 5634.410156 C 1657.601562 5662.808594 1663.078125 5685.398438 1674.050781 5702.171875 C 1685.019531 5718.960938 1699.859375 5727.339844 1718.578125 5727.339844 Z M 1718.578125 5798.980469 C 1689.539062 5798.980469 1664.050781 5792.441406 1642.109375 5779.371094 C 1620.160156 5766.308594 1603.058594 5747.511719 1590.800781 5722.988281 C 1578.539062 5698.46875 1572.410156 5668.941406 1572.410156 5634.410156 C 1572.410156 5599.890625 1578.539062 5570.609375 1590.800781 5546.558594 C 1603.058594 5522.53125 1620.160156 5504.210938 1642.109375 5491.628906 C 1664.050781 5479.039062 1689.539062 5472.75 1718.578125 5472.75 C 1747.621094 5472.75 1773.109375 5479.039062 1795.058594 5491.628906 C 1817 5504.210938 1834.101562 5522.53125 1846.359375 5546.558594 C 1858.621094 5570.609375 1864.75 5599.890625 1864.75 5634.410156 C 1864.75 5668.941406 1858.621094 5698.46875 1846.359375 5722.988281 C 1834.101562 5747.511719 1817 5766.308594 1795.058594 5779.371094 C 1773.109375 5792.441406 1747.621094 5798.980469 1718.578125 5798.980469 "/>
  <path fill="rgb(100%, 100%, 100%)" d="M 1911.210938 5793.171875 L 1911.210938 5478.558594 L 2000.269531 5478.558594 L 2047.699219 5607.308594 C 2050.609375 5616.019531 2053.351562 5625.058594 2055.929688 5634.410156 C 2058.511719 5643.769531 2061.261719 5653.128906 2064.160156 5662.480469 L 2066.101562 5662.480469 C 2069 5653.128906 2071.738281 5643.769531 2074.320312 5634.410156 C 2076.898438 5625.058594 2079.648438 5616.019531 2082.550781 5607.308594 L 2128.050781 5478.558594 L 2217.109375 5478.558594 L 2217.109375 5793.171875 L 2141.601562 5793.171875 L 2141.601562 5700.238281 C 2141.601562 5689.589844 2142.238281 5677.570312 2143.539062 5664.179688 C 2144.820312 5650.789062 2146.28125 5637.320312 2147.890625 5623.761719 C 2149.5 5610.210938 2150.960938 5598.28125 2152.25 5587.949219 L 2150.308594 5587.949219 L 2124.179688 5663.449219 L 2085.460938 5767.511719 L 2040.929688 5767.511719 L 2002.210938 5663.449219 L 1977.039062 5587.949219 L 1975.101562 5587.949219 C 1976.390625 5598.28125 1977.839844 5610.210938 1979.460938 5623.761719 C 1981.070312 5637.320312 1982.519531 5650.789062 1983.808594 5664.179688 C 1985.101562 5677.570312 1985.75 5689.589844 1985.75 5700.238281 L 1985.75 5793.171875 L 1911.210938 5793.171875 "/>
  <path fill="rgb(100%, 100%, 100%)" d="M 2360.371094 5627.640625 L 2390.378906 5627.640625 C 2406.828125 5627.640625 2419.011719 5623.691406 2426.921875 5615.78125 C 2434.820312 5607.878906 2438.78125 5596.980469 2438.78125 5583.109375 C 2438.78125 5568.910156 2434.421875 5558.910156 2425.710938 5553.101562 C 2417 5547.289062 2404.570312 5544.390625 2388.441406 5544.390625 L 2360.371094 5544.390625 Z M 2277.121094 5793.171875 L 2277.121094 5478.558594 L 2392.308594 5478.558594 C 2415.21875 5478.558594 2436.359375 5481.789062 2455.71875 5488.238281 C 2475.078125 5494.699219 2490.640625 5505.511719 2502.429688 5520.671875 C 2514.199219 5535.839844 2520.089844 5556.648438 2520.089844 5583.109375 C 2520.089844 5608.601562 2514.199219 5629.5 2502.429688 5645.789062 C 2490.640625 5662.078125 2475.148438 5674.101562 2455.960938 5681.851562 C 2436.761719 5689.589844 2416.191406 5693.460938 2394.25 5693.460938 L 2360.371094 5693.460938 L 2360.371094 5793.171875 L 2277.121094 5793.171875 "/>
  <path fill="rgb(100%, 100%, 100%)" d="M 2561.710938 5793.171875 L 2561.710938 5478.558594 L 2644.960938 5478.558594 L 2644.960938 5723.46875 L 2764.03125 5723.46875 L 2764.03125 5793.171875 L 2561.710938 5793.171875 "/>
  <path fill="rgb(100%, 100%, 100%)" d="M 2808.558594 5793.171875 L 2808.558594 5478.558594 L 3011.839844 5478.558594 L 3011.839844 5548.261719 L 2891.808594 5548.261719 L 2891.808594 5597.628906 L 2994.421875 5597.628906 L 2994.421875 5667.328125 L 2891.808594 5667.328125 L 2891.808594 5723.46875 L 3016.679688 5723.46875 L 3016.679688 5793.171875 L 2808.558594 5793.171875 "/>
  <path fill="rgb(100%, 100%, 100%)" d="M 3037.980469 5793.171875 L 3123.160156 5631.511719 L 3042.820312 5478.558594 L 3135.75 5478.558594 L 3157.039062 5529.871094 C 3160.589844 5536.96875 3164.140625 5544.871094 3167.691406 5553.578125 C 3171.238281 5562.289062 3175.109375 5571.820312 3179.308594 5582.140625 L 3181.238281 5582.140625 C 3184.789062 5571.820312 3188.179688 5562.289062 3191.410156 5553.578125 C 3194.628906 5544.871094 3197.699219 5536.96875 3200.601562 5529.871094 L 3219 5478.558594 L 3308.058594 5478.558594 L 3227.710938 5635.378906 L 3312.898438 5793.171875 L 3219.960938 5793.171875 L 3194.800781 5737.019531 C 3190.921875 5728.640625 3187.210938 5720.25 3183.660156 5711.851562 C 3180.109375 5703.46875 3176.398438 5694.429688 3172.53125 5684.75 L 3170.601562 5684.75 C 3167.371094 5694.429688 3164.058594 5703.46875 3160.671875 5711.851562 C 3157.289062 5720.25 3153.808594 5728.640625 3150.269531 5737.019531 L 3127.03125 5793.171875 L 3037.980469 5793.171875 "/>
  <path fill="rgb(85.040283%, 12.998962%, 17.454529%)" d="M 1343.398438 6210.78125 C 1347.921875 6215.558594 1353.238281 6219.398438 1359.371094 6222.300781 C 1365.5 6225.210938 1371.859375 6226.660156 1378.441406 6226.660156 C 1386.828125 6226.660156 1393.351562 6224.761719 1398 6220.949219 C 1402.640625 6217.140625 1404.960938 6212.140625 1404.960938 6205.941406 C 1404.960938 6202.71875 1404.421875 6199.96875 1403.320312 6197.71875 C 1402.21875 6195.460938 1400.738281 6193.519531 1398.871094 6191.910156 C 1396.988281 6190.289062 1394.769531 6188.839844 1392.191406 6187.550781 C 1389.601562 6186.261719 1386.828125 6184.910156 1383.859375 6183.480469 L 1365.660156 6175.550781 C 1362.691406 6174.261719 1359.660156 6172.710938 1356.558594 6170.898438 C 1353.46875 6169.101562 1350.691406 6166.898438 1348.238281 6164.320312 C 1345.789062 6161.738281 1343.789062 6158.671875 1342.238281 6155.121094 C 1340.691406 6151.570312 1339.921875 6147.480469 1339.921875 6142.828125 C 1339.921875 6138.058594 1340.910156 6133.601562 1342.921875 6129.46875 C 1344.921875 6125.339844 1347.691406 6121.761719 1351.238281 6118.71875 C 1354.789062 6115.691406 1358.980469 6113.339844 1363.820312 6111.660156 C 1368.660156 6109.980469 1373.988281 6109.140625 1379.800781 6109.140625 C 1387.410156 6109.140625 1394.441406 6110.589844 1400.898438 6113.5 C 1407.351562 6116.398438 1412.839844 6120.171875 1417.359375 6124.820312 L 1408.648438 6135.28125 C 1404.769531 6131.539062 1400.480469 6128.601562 1395.769531 6126.46875 C 1391.058594 6124.339844 1385.730469 6123.28125 1379.800781 6123.28125 C 1372.691406 6123.28125 1366.988281 6124.921875 1362.660156 6128.210938 C 1358.339844 6131.5 1356.179688 6136.050781 1356.179688 6141.859375 C 1356.179688 6144.960938 1356.789062 6147.570312 1358.019531 6149.699219 C 1359.238281 6151.828125 1360.890625 6153.710938 1362.949219 6155.320312 C 1365.019531 6156.929688 1367.28125 6158.351562 1369.730469 6159.578125 C 1372.179688 6160.808594 1374.699219 6161.929688 1377.28125 6162.96875 L 1395.28125 6170.710938 C 1398.898438 6172.261719 1402.320312 6174.03125 1405.550781 6176.03125 C 1408.769531 6178.03125 1411.550781 6180.359375 1413.871094 6183 C 1416.191406 6185.648438 1418.03125 6188.738281 1419.390625 6192.289062 C 1420.75 6195.839844 1421.421875 6199.941406 1421.421875 6204.589844 C 1421.421875 6209.621094 1420.421875 6214.328125 1418.421875 6218.71875 C 1416.421875 6223.109375 1413.550781 6226.949219 1409.800781 6230.238281 C 1406.058594 6233.53125 1401.550781 6236.121094 1396.25 6237.988281 C 1390.960938 6239.851562 1384.960938 6240.789062 1378.25 6240.789062 C 1369.339844 6240.789062 1361.078125 6239.109375 1353.46875 6235.761719 C 1345.851562 6232.398438 1339.269531 6227.820312 1333.71875 6222.011719 L 1343.398438 6210.78125 "/>
  <path fill="rgb(85.040283%, 12.998962%, 17.454529%)" d="M 1484.339844 6125.011719 L 1446.011719 6125.011719 L 1446.011719 6111.460938 L 1538.941406 6111.460938 L 1538.941406 6125.011719 L 1500.609375 6125.011719 L 1500.609375 6238.46875 L 1484.339844 6238.46875 L 1484.339844 6125.011719 "/>
  <path fill="rgb(85.040283%, 12.998962%, 17.454529%)" d="M 1577.269531 6111.460938 L 1650.460938 6111.460938 L 1650.460938 6125.011719 L 1593.351562 6125.011719 L 1593.351562 6164.898438 L 1641.550781 6164.898438 L 1641.550781 6178.640625 L 1593.351562 6178.640625 L 1593.351562 6224.71875 L 1652.398438 6224.71875 L 1652.398438 6238.46875 L 1577.269531 6238.46875 L 1577.269531 6111.460938 "/>
  <path fill="rgb(85.040283%, 12.998962%, 17.454529%)" d="M 1694.789062 6111.460938 L 1767.96875 6111.460938 L 1767.96875 6125.011719 L 1710.859375 6125.011719 L 1710.859375 6164.898438 L 1759.070312 6164.898438 L 1759.070312 6178.640625 L 1710.859375 6178.640625 L 1710.859375 6224.71875 L 1769.910156 6224.71875 L 1769.910156 6238.46875 L 1694.789062 6238.46875 L 1694.789062 6111.460938 "/>
  <path fill="rgb(85.040283%, 12.998962%, 17.454529%)" d="M 1812.308594 6111.460938 L 1828.371094 6111.460938 L 1828.371094 6224.71875 L 1883.941406 6224.71875 L 1883.941406 6238.46875 L 1812.308594 6238.46875 L 1812.308594 6111.460938 "/>
  <path fill="rgb(85.040283%, 12.998962%, 17.454529%)" d="M 1921.890625 6111.460938 L 1940.859375 6111.460938 L 1965.449219 6179.609375 L 1974.738281 6205.558594 L 1975.519531 6205.558594 L 1984.421875 6179.609375 L 2008.820312 6111.460938 L 2027.789062 6111.460938 L 2027.789062 6238.46875 L 2012.488281 6238.46875 L 2012.488281 6168.578125 C 2012.488281 6162.898438 2012.710938 6156.640625 2013.171875 6149.800781 C 2013.621094 6142.960938 2014.101562 6136.699219 2014.621094 6131.019531 L 2013.851562 6131.019531 L 2003.589844 6159.28125 L 1979.191406 6225.691406 L 1970.089844 6225.691406 L 1945.511719 6159.28125 L 1935.441406 6131.019531 L 1934.660156 6131.019531 C 1935.050781 6136.699219 1935.5 6142.960938 1936.019531 6149.800781 C 1936.53125 6156.640625 1936.800781 6162.898438 1936.800781 6168.578125 L 1936.800781 6238.46875 L 1921.890625 6238.46875 L 1921.890625 6111.460938 "/>
  <path fill="rgb(85.040283%, 12.998962%, 17.454529%)" d="M 2132.140625 6186.78125 L 2126.140625 6167.421875 C 2123.820312 6160.320312 2121.621094 6153.25 2119.558594 6146.21875 C 2117.488281 6139.191406 2115.429688 6131.988281 2113.359375 6124.628906 L 2112.589844 6124.628906 C 2110.648438 6131.988281 2108.648438 6139.191406 2106.589844 6146.21875 C 2104.519531 6153.25 2102.328125 6160.320312 2100 6167.421875 L 2094 6186.78125 Z M 2136.210938 6199.75 L 2089.929688 6199.75 L 2077.738281 6238.46875 L 2061.28125 6238.46875 L 2104.261719 6111.460938 L 2122.460938 6111.460938 L 2165.441406 6238.46875 L 2148.210938 6238.46875 L 2136.210938 6199.75 "/>
  <path fill="rgb(85.040283%, 12.998962%, 17.454529%)" d="M 2198.929688 6111.460938 L 2215 6111.460938 L 2215 6175.160156 L 2215.578125 6175.160156 L 2268.441406 6111.460938 L 2286.640625 6111.460938 L 2246.949219 6159.859375 L 2292.828125 6238.46875 L 2274.820312 6238.46875 L 2236.878906 6172.449219 L 2215 6198.199219 L 2215 6238.46875 L 2198.929688 6238.46875 L 2198.929688 6111.460938 "/>
  <path fill="rgb(85.040283%, 12.998962%, 17.454529%)" d="M 2326.511719 6111.460938 L 2342.578125 6111.460938 L 2342.578125 6238.46875 L 2326.511719 6238.46875 L 2326.511719 6111.460938 "/>
  <path fill="rgb(85.040283%, 12.998962%, 17.454529%)" d="M 2392.910156 6111.460938 L 2409.570312 6111.460938 L 2455.449219 6191.230469 L 2469.199219 6217.558594 L 2469.96875 6217.558594 C 2469.589844 6211.109375 2469.171875 6204.429688 2468.710938 6197.519531 C 2468.261719 6190.621094 2468.039062 6183.808594 2468.039062 6177.101562 L 2468.039062 6111.460938 L 2483.328125 6111.460938 L 2483.328125 6238.46875 L 2466.679688 6238.46875 L 2420.601562 6158.511719 L 2406.859375 6132.371094 L 2406.078125 6132.371094 C 2406.589844 6138.828125 2407.078125 6145.378906 2407.53125 6152.019531 C 2407.980469 6158.671875 2408.210938 6165.351562 2408.210938 6172.058594 L 2408.210938 6238.46875 L 2392.910156 6238.46875 L 2392.910156 6111.460938 "/>
  <path fill="rgb(85.040283%, 12.998962%, 17.454529%)" d="M 2526.308594 6174.96875 C 2526.308594 6164.769531 2527.761719 6155.609375 2530.671875 6147.480469 C 2533.570312 6139.339844 2537.640625 6132.441406 2542.859375 6126.761719 C 2548.089844 6121.078125 2554.25 6116.71875 2561.351562 6113.691406 C 2568.449219 6110.660156 2576.261719 6109.140625 2584.78125 6109.140625 C 2593.550781 6109.140625 2600.878906 6110.789062 2606.75 6114.078125 C 2612.621094 6117.371094 2617.429688 6120.949219 2621.171875 6124.820312 L 2612.078125 6135.078125 C 2608.851562 6131.730469 2605.140625 6128.921875 2600.941406 6126.660156 C 2596.75 6124.410156 2591.429688 6123.28125 2584.96875 6123.28125 C 2578.519531 6123.28125 2572.710938 6124.46875 2567.550781 6126.859375 C 2562.378906 6129.238281 2557.988281 6132.660156 2554.378906 6137.121094 C 2550.769531 6141.570312 2547.960938 6146.960938 2545.960938 6153.28125 C 2543.960938 6159.609375 2542.960938 6166.710938 2542.960938 6174.578125 C 2542.960938 6182.589844 2543.890625 6189.78125 2545.769531 6196.171875 C 2547.640625 6202.558594 2550.351562 6208.011719 2553.898438 6212.519531 C 2557.441406 6217.050781 2561.839844 6220.53125 2567.058594 6222.980469 C 2572.289062 6225.429688 2578.320312 6226.660156 2585.171875 6226.660156 C 2589.679688 6226.660156 2593.96875 6225.980469 2598.039062 6224.621094 C 2602.109375 6223.269531 2605.429688 6221.429688 2608.011719 6219.109375 L 2608.011719 6186 L 2581.101562 6186 L 2581.101562 6172.648438 L 2622.730469 6172.648438 L 2622.730469 6226.078125 C 2618.589844 6230.339844 2613.140625 6233.859375 2606.371094 6236.628906 C 2599.589844 6239.410156 2591.941406 6240.789062 2583.421875 6240.789062 C 2575.03125 6240.789062 2567.351562 6239.308594 2560.390625 6236.339844 C 2553.410156 6233.371094 2547.421875 6229.078125 2542.378906 6223.46875 C 2537.351562 6217.851562 2533.410156 6210.949219 2530.570312 6202.75 C 2527.730469 6194.550781 2526.308594 6185.289062 2526.308594 6174.96875 "/>
  <path fill="rgb(85.040283%, 12.998962%, 17.454529%)" d="M 2715.851562 6174.96875 C 2715.851562 6164.769531 2717.261719 6155.609375 2720.101562 6147.480469 C 2722.941406 6139.339844 2726.878906 6132.441406 2731.921875 6126.761719 C 2736.949219 6121.078125 2742.921875 6116.71875 2749.820312 6113.691406 C 2756.730469 6110.660156 2764.25 6109.140625 2772.378906 6109.140625 C 2780.121094 6109.140625 2786.898438 6110.71875 2792.710938 6113.878906 C 2798.511719 6117.050781 2803.289062 6120.691406 2807.03125 6124.820312 L 2797.929688 6135.078125 C 2794.578125 6131.46875 2790.871094 6128.601562 2786.800781 6126.46875 C 2782.738281 6124.339844 2777.988281 6123.28125 2772.570312 6123.28125 C 2766.5 6123.28125 2761.019531 6124.46875 2756.121094 6126.859375 C 2751.210938 6129.238281 2747.011719 6132.660156 2743.53125 6137.121094 C 2740.050781 6141.570312 2737.328125 6146.960938 2735.398438 6153.28125 C 2733.460938 6159.609375 2732.488281 6166.710938 2732.488281 6174.578125 C 2732.488281 6182.589844 2733.429688 6189.78125 2735.300781 6196.171875 C 2737.171875 6202.558594 2739.789062 6208.011719 2743.140625 6212.519531 C 2746.5 6217.050781 2750.601562 6220.53125 2755.441406 6222.980469 C 2760.28125 6225.429688 2765.730469 6226.660156 2771.800781 6226.660156 C 2777.988281 6226.660156 2783.378906 6225.429688 2787.96875 6222.980469 C 2792.539062 6220.53125 2796.898438 6217.050781 2801.03125 6212.519531 L 2810.128906 6222.398438 C 2805.089844 6228.210938 2799.421875 6232.730469 2793.089844 6235.949219 C 2786.769531 6239.179688 2779.539062 6240.789062 2771.410156 6240.789062 C 2763.410156 6240.789062 2756.019531 6239.308594 2749.238281 6236.339844 C 2742.46875 6233.371094 2736.589844 6229.078125 2731.621094 6223.46875 C 2726.660156 6217.851562 2722.78125 6210.949219 2720.011719 6202.75 C 2717.230469 6194.550781 2715.851562 6185.289062 2715.851562 6174.96875 "/>
  <path fill="rgb(85.040283%, 12.998962%, 17.454529%)" d="M 2890.480469 6226.660156 C 2896.148438 6226.660156 2901.28125 6225.429688 2905.871094 6222.980469 C 2910.449219 6220.53125 2914.378906 6217.011719 2917.679688 6212.429688 C 2920.96875 6207.851562 2923.519531 6202.359375 2925.328125 6195.96875 C 2927.128906 6189.589844 2928.039062 6182.390625 2928.039062 6174.378906 C 2928.039062 6166.511719 2927.128906 6159.421875 2925.328125 6153.089844 C 2923.519531 6146.769531 2920.96875 6141.410156 2917.679688 6137.019531 C 2914.378906 6132.628906 2910.449219 6129.238281 2905.871094 6126.859375 C 2901.28125 6124.46875 2896.148438 6123.28125 2890.480469 6123.28125 C 2884.800781 6123.28125 2879.660156 6124.46875 2875.078125 6126.859375 C 2870.5 6129.238281 2866.558594 6132.628906 2863.28125 6137.019531 C 2859.988281 6141.410156 2857.429688 6146.769531 2855.628906 6153.089844 C 2853.820312 6159.421875 2852.910156 6166.511719 2852.910156 6174.378906 C 2852.910156 6182.390625 2853.820312 6189.589844 2855.628906 6195.96875 C 2857.429688 6202.359375 2859.988281 6207.851562 2863.28125 6212.429688 C 2866.558594 6217.011719 2870.5 6220.53125 2875.078125 6222.980469 C 2879.660156 6225.429688 2884.800781 6226.660156 2890.480469 6226.660156 Z M 2890.480469 6240.789062 C 2882.46875 6240.789062 2875.148438 6239.238281 2868.5 6236.140625 C 2861.851562 6233.050781 2856.140625 6228.628906 2851.371094 6222.890625 C 2846.589844 6217.140625 2842.878906 6210.171875 2840.238281 6201.96875 C 2837.589844 6193.78125 2836.269531 6184.578125 2836.269531 6174.378906 C 2836.269531 6164.191406 2837.589844 6155.058594 2840.238281 6146.988281 C 2842.878906 6138.929688 2846.589844 6132.078125 2851.371094 6126.46875 C 2856.140625 6120.859375 2861.851562 6116.558594 2868.5 6113.601562 C 2875.148438 6110.628906 2882.46875 6109.140625 2890.480469 6109.140625 C 2898.480469 6109.140625 2905.800781 6110.660156 2912.449219 6113.691406 C 2919.101562 6116.71875 2924.839844 6121.050781 2929.679688 6126.660156 C 2934.519531 6132.269531 2938.261719 6139.121094 2940.910156 6147.179688 C 2943.550781 6155.25 2944.878906 6164.320312 2944.878906 6174.378906 C 2944.878906 6184.578125 2943.550781 6193.78125 2940.910156 6201.96875 C 2938.261719 6210.171875 2934.519531 6217.140625 2929.679688 6222.890625 C 2924.839844 6228.628906 2919.101562 6233.050781 2912.449219 6236.140625 C 2905.800781 6239.238281 2898.480469 6240.789062 2890.480469 6240.789062 "/>
  <path fill="rgb(85.040283%, 12.998962%, 17.454529%)" d="M 3039.738281 6186.78125 L 3033.738281 6167.421875 C 3031.421875 6160.320312 3029.21875 6153.25 3027.160156 6146.21875 C 3025.089844 6139.191406 3023.03125 6131.988281 3020.960938 6124.628906 L 3020.191406 6124.628906 C 3018.25 6131.988281 3016.25 6139.191406 3014.191406 6146.21875 C 3012.121094 6153.25 3009.921875 6160.320312 3007.601562 6167.421875 L 3001.601562 6186.78125 Z M 3043.808594 6199.75 L 2997.539062 6199.75 L 2985.339844 6238.46875 L 2968.878906 6238.46875 L 3011.859375 6111.460938 L 3030.058594 6111.460938 L 3073.039062 6238.46875 L 3055.808594 6238.46875 L 3043.808594 6199.75 "/>
  <path fill="rgb(85.040283%, 12.998962%, 17.454529%)" d="M 3106.53125 6111.460938 L 3122.601562 6111.460938 L 3122.601562 6224.71875 L 3178.171875 6224.71875 L 3178.171875 6238.46875 L 3106.53125 6238.46875 L 3106.53125 6111.460938 "/>
  <path fill="rgb(85.040283%, 12.998962%, 17.454529%)" d="M 3180.210938 6001.03125 L 1332.261719 6001.03125 L 1332.261719 5991.351562 L 3180.210938 5991.351562 L 3180.210938 6001.03125 "/>
</g>
</svg>