<svg xmlns="http://www.w3.org/2000/svg" viewBox="0 0 2473.82 1975.44" aria-label="Olive Downs Complex sub-brand on light">
<g transform="translate(-889.07,50.00)">
  <path fill="rgb(85.040283%, 12.998962%, 17.454529%)" d="M 1228.230469 210.398438 L 1203.160156 220.769531 L 1203.160156 200.03125 L 1217.839844 185.328125 Z M 1163.710938 179.871094 L 1149.640625 165.800781 L 1168 158.210938 L 1204.46875 173.300781 L 1208.671875 163.160156 L 1215.171875 178.859375 L 1203.160156 190.871094 L 1203.160156 179.871094 Z M 1196.699219 197.339844 L 1188.929688 205.101562 L 1170.171875 186.351562 L 1196.699219 186.351562 Z M 1196.699219 206.511719 L 1196.699219 223.460938 L 1180.988281 229.96875 L 1185.199219 219.808594 L 1148.738281 204.710938 L 1141.128906 186.351562 L 1161.019531 186.351562 L 1188.929688 214.25 L 1196.699219 206.5 Z M 1196.699219 257.601562 L 1169.539062 257.601562 L 1177.480469 238.421875 L 1196.699219 230.460938 Z M 1152.238281 213.160156 L 1176.75 223.308594 L 1172.53125 233.480469 L 1162.398438 237.671875 Z M 1162.539062 257.601562 L 1145.558594 257.601562 L 1153.320312 249.851562 L 1125.410156 221.921875 L 1125.410156 202.050781 L 1143.769531 209.648438 L 1158.898438 246.121094 L 1169.019531 241.929688 Z M 1149.460938 289.160156 L 1124.398438 278.769531 L 1139.089844 264.070312 L 1159.859375 264.070312 Z M 1117.921875 276.078125 L 1102.238281 269.609375 L 1112.371094 265.398438 L 1097.269531 228.949219 L 1104.890625 210.570312 L 1118.949219 224.621094 L 1118.949219 264.070312 L 1129.941406 264.070312 Z M 1093.78125 300.238281 L 1074.578125 281.039062 L 1093.78125 273.109375 L 1112.96875 281.039062 Z M 1057.621094 264.070312 L 1068.609375 264.070312 L 1068.609375 224.621094 L 1082.671875 210.570312 L 1090.28125 228.941406 L 1075.160156 265.398438 L 1085.308594 269.609375 L 1069.640625 276.078125 Z M 1038.070312 289.160156 L 1027.699219 264.070312 L 1048.480469 264.070312 L 1063.160156 278.769531 Z M 1062.140625 231.078125 L 1062.140625 257.601562 L 1051.160156 257.601562 L 1043.390625 249.851562 Z M 1018.53125 241.929688 L 1028.671875 246.121094 L 1043.769531 209.671875 L 1062.140625 202.050781 L 1062.140625 221.921875 L 1034.238281 249.851562 L 1042 257.601562 L 1025.011719 257.601562 Z M 990.855469 257.601562 L 990.855469 230.460938 L 1010.058594 238.421875 L 1018.019531 257.601562 Z M 984.394531 190.859375 L 972.375 178.859375 L 978.886719 163.160156 L 983.082031 173.300781 L 1019.550781 158.210938 L 1037.910156 165.800781 L 1023.859375 179.871094 L 984.394531 179.871094 Z M 984.394531 220.769531 L 959.300781 210.398438 L 969.695312 185.320312 L 984.394531 200.019531 Z M 948.222656 154.710938 L 967.421875 135.511719 L 975.375 154.710938 L 967.421875 173.898438 Z M 959.300781 99.011719 L 984.394531 88.621094 L 984.394531 109.378906 L 969.695312 124.078125 Z M 1011.089844 154.710938 L 986.585938 164.851562 L 982.382812 154.710938 L 986.585938 144.550781 Z M 1023.859375 129.511719 L 1037.921875 143.578125 L 1019.558594 151.199219 L 983.082031 136.101562 L 978.886719 146.25 L 972.375 130.550781 L 984.394531 118.539062 L 984.394531 129.511719 Z M 990.855469 112.070312 L 998.636719 104.289062 L 1017.378906 123.03125 L 990.855469 123.03125 Z M 990.855469 102.921875 L 990.855469 85.941406 L 1006.558594 79.429688 L 1002.351562 89.570312 L 1038.820312 104.671875 L 1046.429688 123.03125 L 1026.539062 123.03125 L 998.636719 95.148438 Z M 990.855469 51.78125 L 1018.019531 51.78125 L 1010.058594 70.980469 L 990.855469 78.941406 Z M 1035.300781 96.21875 L 1010.808594 86.078125 L 1015.019531 75.929688 L 1025.179688 71.730469 Z M 1025.011719 51.78125 L 1042.011719 51.78125 L 1034.238281 59.558594 L 1062.140625 87.460938 L 1062.140625 107.339844 L 1043.769531 99.71875 L 1028.671875 63.269531 L 1018.519531 67.488281 Z M 1038.070312 20.21875 L 1063.160156 30.621094 L 1048.480469 45.308594 L 1027.699219 45.308594 Z M 1069.640625 33.300781 L 1085.328125 39.800781 L 1075.160156 44.011719 L 1090.28125 80.46875 L 1082.671875 98.828125 L 1068.609375 84.78125 L 1068.609375 45.308594 L 1057.621094 45.308594 Z M 1093.78125 9.148438 L 1112.96875 28.339844 L 1093.78125 36.289062 L 1074.578125 28.339844 Z M 1129.941406 45.308594 L 1118.949219 45.308594 L 1118.949219 84.78125 L 1104.890625 98.828125 L 1097.269531 80.46875 L 1112.371094 44.011719 L 1102.230469 39.800781 L 1117.921875 33.300781 Z M 1149.460938 20.21875 L 1159.859375 45.308594 L 1139.089844 45.308594 L 1124.398438 30.609375 Z M 1125.410156 78.308594 L 1125.410156 51.78125 L 1136.410156 51.78125 L 1144.171875 59.558594 Z M 1169.050781 67.480469 L 1158.898438 63.269531 L 1143.769531 99.71875 L 1125.410156 107.339844 L 1125.410156 87.460938 L 1153.320312 59.558594 L 1145.550781 51.78125 L 1162.539062 51.78125 Z M 1196.699219 51.78125 L 1196.699219 78.941406 L 1177.511719 70.980469 L 1169.539062 51.78125 Z M 1196.699219 112.058594 L 1196.699219 123.03125 L 1170.179688 123.03125 L 1188.929688 104.289062 Z M 1152.238281 96.21875 L 1162.398438 71.730469 L 1172.550781 75.929688 L 1176.75 86.089844 Z M 1185.199219 89.589844 L 1181.011719 79.441406 L 1196.699219 85.941406 L 1196.699219 102.910156 L 1188.929688 95.148438 L 1161.019531 123.03125 L 1141.128906 123.03125 L 1148.738281 104.671875 Z M 1083.621094 47.5 L 1093.769531 43.300781 L 1103.921875 47.5 L 1093.78125 72.011719 Z M 1062.140625 78.308594 L 1043.390625 59.558594 L 1051.160156 51.78125 L 1062.140625 51.78125 Z M 990.855469 197.320312 L 990.855469 186.351562 L 1017.390625 186.351562 L 998.636719 205.101562 Z M 1002.351562 219.808594 L 1006.558594 229.96875 L 990.855469 223.460938 L 990.855469 206.480469 L 998.636719 214.25 L 1026.539062 186.351562 L 1046.429688 186.351562 L 1038.820312 204.71875 Z M 1035.308594 213.171875 L 1025.179688 237.671875 L 1015.019531 233.480469 L 1010.808594 223.308594 Z M 1103.921875 261.898438 L 1093.769531 266.101562 L 1083.621094 261.898438 L 1093.78125 237.398438 Z M 1125.410156 231.078125 L 1144.171875 249.851562 L 1136.410156 257.601562 L 1125.410156 257.601562 Z M 1154.550781 179.871094 L 1131.441406 179.871094 L 1140.28125 201.199219 L 1118.949219 192.378906 L 1118.949219 215.460938 L 1102.621094 199.160156 L 1093.78125 220.488281 L 1084.941406 199.160156 L 1068.609375 215.460938 L 1068.609375 192.378906 L 1047.269531 201.210938 L 1056.109375 179.871094 L 1033 179.871094 L 1049.328125 163.53125 L 1028 154.699219 L 1049.320312 145.851562 L 1033 129.511719 L 1056.109375 129.511719 L 1047.269531 108.191406 L 1068.609375 117.03125 L 1068.609375 93.921875 L 1084.941406 110.261719 L 1093.78125 88.921875 L 1102.621094 110.261719 L 1118.949219 93.921875 L 1118.949219 117.03125 L 1140.269531 108.191406 L 1131.441406 129.511719 L 1154.550781 129.511719 L 1138.210938 145.851562 L 1159.550781 154.699219 L 1138.210938 163.53125 Z M 1205.171875 154.710938 L 1200.980469 164.851562 L 1176.46875 154.710938 L 1200.980469 144.550781 Z M 1203.160156 118.53125 L 1215.171875 130.550781 L 1208.671875 146.238281 L 1204.46875 136.101562 L 1168 151.199219 L 1149.640625 143.578125 L 1163.710938 129.511719 L 1203.160156 129.511719 Z M 1203.160156 88.621094 L 1228.230469 99.011719 L 1217.839844 124.078125 L 1203.160156 109.371094 Z M 1239.308594 154.710938 L 1220.121094 173.898438 L 1212.179688 154.710938 L 1220.121094 135.511719 Z M 1248.460938 154.710938 L 1222.789062 129.039062 L 1236.691406 95.5 L 1203.160156 81.609375 L 1203.160156 45.308594 L 1166.859375 45.308594 L 1152.960938 11.769531 L 1119.449219 25.671875 L 1093.78125 0 L 1068.109375 25.671875 L 1034.570312 11.769531 L 1020.691406 45.308594 L 984.394531 45.308594 L 984.394531 81.609375 L 950.84375 95.5 L 964.738281 129.039062 L 939.074219 154.710938 L 964.738281 180.359375 L 950.84375 213.898438 L 984.394531 227.789062 L 984.394531 264.070312 L 1020.691406 264.070312 L 1034.570312 297.609375 L 1068.109375 283.71875 L 1093.78125 309.378906 L 1119.449219 283.71875 L 1152.960938 297.609375 L 1166.859375 264.070312 L 1203.160156 264.070312 L 1203.160156 227.789062 L 1236.691406 213.898438 L 1222.789062 180.359375 L 1248.460938 154.710938 "/>
  <path fill="rgb(13.729858%, 12.159729%, 12.548828%)" d="M 1390.929688 150.421875 C 1398.78125 150.421875 1404.589844 148.578125 1408.359375 144.878906 C 1412.140625 141.179688 1414 135.949219 1414 129.191406 C 1414 122.429688 1412.011719 117.640625 1408.011719 114.890625 C 1404 112.121094 1398.320312 110.730469 1390.929688 110.730469 L 1374.328125 110.730469 L 1374.328125 150.421875 Z M 1334.640625 79.359375 L 1392.769531 79.359375 C 1400.78125 79.359375 1408.429688 80.148438 1415.738281 81.78125 C 1423.039062 83.378906 1429.441406 86.160156 1434.898438 90.089844 C 1440.359375 94 1444.691406 99.148438 1447.941406 105.53125 C 1451.160156 111.929688 1452.769531 119.808594 1452.769531 129.191406 C 1452.769531 138.429688 1451.128906 146.351562 1447.820312 152.949219 C 1444.5 159.578125 1440.089844 164.988281 1434.550781 169.210938 C 1429.011719 173.441406 1422.621094 176.621094 1415.398438 178.691406 C 1408.171875 180.769531 1400.628906 181.800781 1392.769531 181.800781 L 1374.328125 181.800781 L 1374.328125 229.339844 L 1334.640625 229.339844 L 1334.640625 79.359375 "/>
  <path fill="rgb(13.729858%, 12.159729%, 12.548828%)" d="M 1462.828125 79.359375 L 1559.738281 79.359375 L 1559.738281 112.570312 L 1502.511719 112.570312 L 1502.511719 136.101562 L 1551.429688 136.101562 L 1551.429688 169.339844 L 1502.511719 169.339844 L 1502.511719 196.121094 L 1562.050781 196.121094 L 1562.050781 229.339844 L 1462.828125 229.339844 L 1462.828125 79.359375 "/>
  <path fill="rgb(13.729858%, 12.159729%, 12.548828%)" d="M 1573 79.359375 L 1614.078125 79.359375 L 1637.589844 141.648438 L 1645.910156 166.101562 L 1646.828125 166.101562 L 1655.128906 141.648438 L 1677.761719 79.359375 L 1718.808594 79.359375 L 1718.808594 229.339844 L 1681.898438 229.339844 L 1681.898438 185.03125 C 1681.898438 181.179688 1682.101562 176.949219 1682.488281 172.339844 C 1682.859375 167.730469 1683.28125 162.988281 1683.75 158.148438 C 1684.21875 153.308594 1684.738281 148.578125 1685.359375 143.96875 C 1685.980469 139.351562 1686.519531 135.191406 1686.96875 131.480469 L 1686.058594 131.480469 L 1673.589844 166.550781 L 1652.828125 217.101562 L 1638.058594 217.101562 L 1617.289062 166.550781 L 1605.289062 131.480469 L 1604.371094 131.480469 C 1604.828125 135.191406 1605.378906 139.351562 1605.96875 143.96875 C 1606.609375 148.578125 1607.140625 153.308594 1607.609375 158.148438 C 1608.070312 162.988281 1608.488281 167.730469 1608.878906 172.339844 C 1609.261719 176.949219 1609.449219 181.179688 1609.449219 185.03125 L 1609.449219 229.339844 L 1573 229.339844 L 1573 79.359375 "/>
  <path fill="rgb(13.729858%, 12.159729%, 12.548828%)" d="M 1785.621094 198.878906 C 1801.011719 198.878906 1808.699219 193.179688 1808.699219 181.789062 C 1808.699219 176.261719 1806.820312 172.269531 1803.050781 169.800781 C 1799.289062 167.351562 1793.480469 166.101562 1785.621094 166.101562 L 1769.480469 166.101562 L 1769.480469 198.878906 Z M 1782.859375 138.429688 C 1789.328125 138.429688 1794.089844 136.941406 1797.171875 134.019531 C 1800.238281 131.121094 1801.78125 127.351562 1801.78125 122.730469 C 1801.78125 118.109375 1800.238281 114.808594 1797.171875 112.800781 C 1794.089844 110.808594 1789.328125 109.820312 1782.859375 109.820312 L 1769.480469 109.820312 L 1769.480469 138.429688 Z M 1729.78125 79.359375 L 1783.789062 79.359375 C 1791.648438 79.359375 1799.011719 79.941406 1805.929688 81.070312 C 1812.859375 82.238281 1818.839844 84.179688 1823.941406 86.960938 C 1829.011719 89.730469 1833.039062 93.53125 1836.050781 98.378906 C 1839.050781 103.230469 1840.550781 109.351562 1840.550781 116.71875 C 1840.550781 119.949219 1840.078125 123.21875 1839.160156 126.53125 C 1838.230469 129.851562 1836.738281 132.988281 1834.660156 136 C 1832.589844 139 1829.960938 141.648438 1826.820312 143.96875 C 1823.671875 146.261719 1819.929688 147.949219 1815.621094 149.03125 L 1815.621094 149.960938 C 1826.238281 152.101562 1834.199219 155.988281 1839.5 161.601562 C 1844.800781 167.25 1847.46875 175.03125 1847.46875 185.019531 C 1847.46875 192.730469 1845.890625 199.390625 1842.75 205 C 1839.589844 210.609375 1835.339844 215.21875 1830.03125 218.851562 C 1824.738281 222.441406 1818.460938 225.109375 1811.238281 226.789062 C 1804.011719 228.488281 1796.390625 229.339844 1788.390625 229.339844 L 1729.78125 229.339844 L 1729.78125 79.359375 "/>
  <path fill="rgb(13.729858%, 12.159729%, 12.548828%)" d="M 1898.03125 147.660156 L 1912.339844 147.660156 C 1928.308594 147.660156 1936.320312 141.03125 1936.320312 127.800781 C 1936.320312 121.339844 1934.28125 116.878906 1930.21875 114.421875 C 1926.140625 111.960938 1920.179688 110.730469 1912.339844 110.730469 L 1898.03125 110.730469 Z M 1939.089844 229.339844 L 1913.261719 179.039062 L 1898.03125 179.039062 L 1898.03125 229.339844 L 1858.339844 229.339844 L 1858.339844 79.359375 L 1915.109375 79.359375 C 1923.101562 79.359375 1930.75 80.128906 1938.058594 81.648438 C 1945.359375 83.191406 1951.738281 85.808594 1957.210938 89.5 C 1962.671875 93.210938 1967.019531 98.148438 1970.230469 104.398438 C 1973.488281 110.621094 1975.089844 118.410156 1975.089844 127.800781 C 1975.089844 138.570312 1972.910156 147.488281 1968.511719 154.570312 C 1964.140625 161.648438 1958.238281 167.191406 1950.859375 171.191406 L 1983.398438 229.339844 L 1939.089844 229.339844 "/>
  <path fill="rgb(13.729858%, 12.159729%, 12.548828%)" d="M 2053.390625 197.96875 C 2062.460938 197.96875 2069.570312 194 2074.738281 186.070312 C 2079.898438 178.148438 2082.460938 167.351562 2082.460938 153.648438 C 2082.460938 139.949219 2079.898438 129.378906 2074.738281 121.910156 C 2069.570312 114.460938 2062.460938 110.730469 2053.390625 110.730469 C 2044.320312 110.730469 2037.191406 114.460938 2032.050781 121.910156 C 2026.890625 129.378906 2024.308594 139.949219 2024.308594 153.648438 C 2024.308594 167.351562 2026.890625 178.148438 2032.050781 186.070312 C 2037.191406 194 2044.320312 197.96875 2053.390625 197.96875 M 2053.390625 232.109375 C 2042.929688 232.109375 2033.429688 230.320312 2024.898438 226.789062 C 2016.359375 223.261719 2009.058594 218.140625 2002.980469 211.460938 C 1996.890625 204.75 1992.171875 196.53125 1988.789062 186.769531 C 1985.410156 176.988281 1983.699219 165.960938 1983.699219 153.648438 C 1983.699219 141.339844 1985.410156 130.378906 1988.789062 120.75 C 1992.171875 111.160156 1996.890625 103.078125 2002.980469 96.539062 C 2009.058594 90.011719 2016.359375 85.019531 2024.898438 81.660156 C 2033.429688 78.261719 2042.929688 76.570312 2053.390625 76.570312 C 2063.679688 76.570312 2073.160156 78.261719 2081.769531 81.660156 C 2090.390625 85.019531 2097.730469 90.039062 2103.808594 96.660156 C 2109.898438 103.269531 2114.621094 111.339844 2118 120.878906 C 2121.378906 130.421875 2123.078125 141.339844 2123.078125 153.648438 C 2123.078125 165.960938 2121.378906 176.988281 2118 186.769531 C 2114.621094 196.53125 2109.898438 204.75 2103.808594 211.460938 C 2097.730469 218.140625 2090.390625 223.261719 2081.769531 226.789062 C 2073.160156 230.320312 2063.679688 232.109375 2053.390625 232.109375 "/>
  <path fill="rgb(13.729858%, 12.159729%, 12.548828%)" d="M 2133.691406 79.359375 L 2173.371094 79.359375 L 2173.371094 147.46875 L 2174.289062 147.46875 L 2212.140625 79.359375 L 2255.519531 79.359375 L 2210.761719 152.53125 L 2256.039062 229.339844 L 2212.671875 229.339844 L 2173.371094 159.511719 L 2173.371094 229.339844 L 2133.691406 229.339844 L 2133.691406 79.359375 "/>
  <path fill="rgb(13.729858%, 12.159729%, 12.548828%)" d="M 2266.511719 79.359375 L 2363.421875 79.359375 L 2363.421875 112.570312 L 2306.191406 112.570312 L 2306.191406 136.101562 L 2355.121094 136.101562 L 2355.121094 169.339844 L 2306.191406 169.339844 L 2306.191406 196.121094 L 2365.738281 196.121094 L 2365.738281 229.339844 L 2266.511719 229.339844 L 2266.511719 79.359375 "/>
  <path fill="rgb(13.729858%, 12.159729%, 12.548828%)" d="M 1463.988281 684.371094 C 1483.03125 684.371094 1497.949219 675.988281 1508.761719 659.199219 C 1519.570312 642.429688 1524.980469 619.839844 1524.980469 591.441406 C 1524.980469 562.730469 1519.570312 540.550781 1508.761719 524.890625 C 1497.949219 509.238281 1483.03125 501.421875 1463.988281 501.421875 C 1445.269531 501.421875 1430.429688 509.238281 1419.460938 524.890625 C 1408.488281 540.550781 1403 562.730469 1403 591.441406 C 1403 619.839844 1408.488281 642.429688 1419.460938 659.199219 C 1430.429688 675.988281 1445.269531 684.371094 1463.988281 684.371094 Z M 1463.988281 756.011719 C 1434.949219 756.011719 1409.460938 749.46875 1387.519531 736.398438 C 1365.570312 723.328125 1348.46875 704.539062 1336.210938 680.019531 C 1323.949219 655.5 1317.820312 625.96875 1317.820312 591.441406 C 1317.820312 556.921875 1323.949219 527.640625 1336.210938 503.589844 C 1348.46875 479.558594 1365.570312 461.238281 1387.519531 448.660156 C 1409.460938 436.070312 1434.949219 429.78125 1463.988281 429.78125 C 1493.03125 429.78125 1518.519531 436.070312 1540.460938 448.660156 C 1562.398438 461.238281 1579.5 479.558594 1591.769531 503.589844 C 1604.03125 527.640625 1610.160156 556.921875 1610.160156 591.441406 C 1610.160156 625.96875 1604.03125 655.5 1591.769531 680.019531 C 1579.5 704.539062 1562.398438 723.328125 1540.460938 736.398438 C 1518.519531 749.46875 1493.03125 756.011719 1463.988281 756.011719 "/>
  <path fill="rgb(13.729858%, 12.159729%, 12.548828%)" d="M 1656.621094 750.199219 L 1656.621094 435.589844 L 1739.871094 435.589844 L 1739.871094 680.5 L 1858.941406 680.5 L 1858.941406 750.199219 L 1656.621094 750.199219 "/>
  <path fill="rgb(13.729858%, 12.159729%, 12.548828%)" d="M 1903.46875 750.199219 L 1903.46875 435.589844 L 1986.71875 435.589844 L 1986.71875 750.199219 L 1903.46875 750.199219 "/>
  <path fill="rgb(13.729858%, 12.159729%, 12.548828%)" d="M 2099.96875 750.199219 L 2007.039062 435.589844 L 2095.128906 435.589844 L 2128.039062 573.050781 C 2132.558594 589.828125 2136.511719 606.371094 2139.898438 622.660156 C 2143.289062 638.960938 2147.078125 655.660156 2151.28125 672.761719 L 2153.210938 672.761719 C 2157.730469 655.660156 2161.679688 638.960938 2165.070312 622.660156 C 2168.460938 606.371094 2172.25 589.828125 2176.441406 573.050781 L 2208.390625 435.589844 L 2293.578125 435.589844 L 2200.648438 750.199219 L 2099.96875 750.199219 "/>
  <path fill="rgb(13.729858%, 12.159729%, 12.548828%)" d="M 2313.898438 750.199219 L 2313.898438 435.589844 L 2517.179688 435.589844 L 2517.179688 505.289062 L 2397.148438 505.289062 L 2397.148438 554.660156 L 2499.761719 554.660156 L 2499.761719 624.351562 L 2397.148438 624.351562 L 2397.148438 680.5 L 2522.019531 680.5 L 2522.019531 750.199219 L 2313.898438 750.199219 "/>
  <path fill="rgb(13.729858%, 12.159729%, 12.548828%)" d="M 1414.621094 1022.210938 L 1419.460938 1022.210938 C 1434.621094 1022.210938 1448.339844 1019.628906 1460.601562 1014.46875 C 1472.859375 1009.308594 1482.621094 1000.109375 1489.890625 986.878906 C 1497.148438 973.648438 1500.78125 954.78125 1500.78125 930.25 C 1500.78125 905.730469 1497.148438 887.101562 1489.890625 874.351562 C 1482.621094 861.601562 1472.859375 852.890625 1460.601562 848.210938 C 1448.339844 843.539062 1434.621094 841.191406 1419.460938 841.191406 L 1414.621094 841.191406 Z M 1331.371094 1089.011719 L 1331.371094 774.398438 L 1424.300781 774.398438 C 1456.25 774.398438 1484.390625 779.648438 1508.761719 790.128906 C 1533.121094 800.621094 1552.078125 817.320312 1565.628906 840.21875 C 1579.191406 863.140625 1585.960938 893.148438 1585.960938 930.25 C 1585.960938 967.359375 1579.191406 997.609375 1565.628906 1021 C 1552.078125 1044.398438 1533.519531 1061.578125 1509.96875 1072.550781 C 1486.410156 1083.519531 1459.46875 1089.011719 1429.140625 1089.011719 L 1331.371094 1089.011719 "/>
  <path fill="rgb(13.729858%, 12.159729%, 12.548828%)" d="M 1765.039062 1023.179688 C 1784.078125 1023.179688 1799 1014.789062 1809.820312 998.011719 C 1820.621094 981.238281 1826.03125 958.648438 1826.03125 930.25 C 1826.03125 901.53125 1820.621094 879.351562 1809.820312 863.699219 C 1799 848.050781 1784.078125 840.21875 1765.039062 840.21875 C 1746.328125 840.21875 1731.480469 848.050781 1720.519531 863.699219 C 1709.539062 879.351562 1704.058594 901.53125 1704.058594 930.25 C 1704.058594 958.648438 1709.539062 981.238281 1720.519531 998.011719 C 1731.480469 1014.789062 1746.328125 1023.179688 1765.039062 1023.179688 Z M 1765.039062 1094.808594 C 1736 1094.808594 1710.511719 1088.28125 1688.570312 1075.210938 C 1666.621094 1062.140625 1649.53125 1043.351562 1637.269531 1018.820312 C 1625 994.308594 1618.871094 964.78125 1618.871094 930.25 C 1618.871094 895.730469 1625 866.441406 1637.269531 842.398438 C 1649.53125 818.371094 1666.621094 800.050781 1688.570312 787.46875 C 1710.511719 774.878906 1736 768.589844 1765.039062 768.589844 C 1794.089844 768.589844 1819.570312 774.878906 1841.519531 787.46875 C 1863.460938 800.050781 1880.558594 818.371094 1892.820312 842.398438 C 1905.078125 866.441406 1911.21875 895.730469 1911.21875 930.25 C 1911.21875 964.78125 1905.078125 994.308594 1892.820312 1018.820312 C 1880.558594 1043.351562 1863.460938 1062.140625 1841.519531 1075.210938 C 1819.570312 1088.28125 1794.089844 1094.808594 1765.039062 1094.808594 "/>
  <path fill="rgb(13.729858%, 12.159729%, 12.548828%)" d="M 1982.839844 1089.011719 L 1927.671875 774.398438 L 2012.851562 774.398438 L 2030.28125 911.859375 C 2031.890625 928.308594 2033.660156 944.769531 2035.601562 961.230469 C 2037.539062 977.679688 2039.308594 994.140625 2040.921875 1010.601562 L 2042.859375 1010.601562 C 2045.761719 994.140625 2048.671875 977.609375 2051.570312 960.980469 C 2054.480469 944.371094 2057.378906 928 2060.28125 911.859375 L 2090.289062 774.398438 L 2159.988281 774.398438 L 2190 911.859375 C 2192.898438 927.671875 2195.808594 943.890625 2198.710938 960.5 C 2201.621094 977.121094 2204.519531 993.820312 2207.421875 1010.601562 L 2209.359375 1010.601562 C 2210.96875 993.820312 2212.75 977.121094 2214.679688 960.5 C 2216.621094 943.890625 2218.390625 927.671875 2220.011719 911.859375 L 2237.429688 774.398438 L 2316.808594 774.398438 L 2264.539062 1089.011719 L 2159.019531 1089.011719 L 2134.820312 964.128906 C 2132.558594 951.871094 2130.46875 939.449219 2128.53125 926.859375 C 2126.589844 914.28125 2124.820312 902.179688 2123.210938 890.558594 L 2121.269531 890.558594 C 2119.648438 902.179688 2117.960938 914.28125 2116.191406 926.859375 C 2114.410156 939.449219 2112.230469 951.871094 2109.648438 964.128906 L 2086.421875 1089.011719 L 1982.839844 1089.011719 "/>
  <path fill="rgb(13.729858%, 12.159729%, 12.548828%)" d="M 2346.808594 1089.011719 L 2346.808594 774.398438 L 2432 774.398438 L 2501.699219 914.761719 L 2531.710938 985.429688 L 2533.640625 985.429688 C 2531.710938 968.328125 2529.449219 948.878906 2526.871094 927.101562 C 2524.28125 905.320312 2522.988281 884.75 2522.988281 865.390625 L 2522.988281 774.398438 L 2602.371094 774.398438 L 2602.371094 1089.011719 L 2517.191406 1089.011719 L 2447.488281 948.160156 L 2417.480469 877.980469 L 2415.539062 877.980469 C 2417.480469 895.730469 2419.730469 915.328125 2422.320312 936.78125 C 2424.898438 958.25 2426.191406 978.648438 2426.191406 998.011719 L 2426.191406 1089.011719 L 2346.808594 1089.011719 "/>
  <path fill="rgb(13.729858%, 12.159729%, 12.548828%)" d="M 2762.101562 1094.808594 C 2742.410156 1094.808594 2721.921875 1091.101562 2700.628906 1083.679688 C 2679.328125 1076.261719 2660.128906 1064.96875 2643.03125 1049.800781 L 2690.460938 992.691406 C 2701.75 1001.730469 2713.941406 1009.070312 2727 1014.710938 C 2740.070312 1020.359375 2752.410156 1023.179688 2764.03125 1023.179688 C 2776.621094 1023.179688 2785.730469 1021.238281 2791.378906 1017.371094 C 2797.019531 1013.5 2799.851562 1008.019531 2799.851562 1000.921875 C 2799.851562 993.5 2796.050781 987.851562 2788.46875 983.980469 C 2780.890625 980.101562 2770.480469 975.589844 2757.25 970.421875 L 2718.050781 953.96875 C 2701.269531 947.191406 2686.511719 936.539062 2673.761719 922.019531 C 2661.011719 907.5 2654.640625 888.949219 2654.640625 866.359375 C 2654.640625 848.289062 2659.640625 831.921875 2669.648438 817.230469 C 2679.648438 802.550781 2693.441406 790.78125 2711.03125 781.898438 C 2728.609375 773.03125 2748.859375 768.589844 2771.78125 768.589844 C 2789.839844 768.589844 2808.148438 772.058594 2826.710938 779 C 2845.261719 785.941406 2861.800781 796.5 2876.320312 810.699219 L 2834.699219 862.96875 C 2824.050781 855.550781 2813.800781 849.910156 2803.960938 846.03125 C 2794.121094 842.160156 2783.390625 840.21875 2771.78125 840.21875 C 2761.769531 840.21875 2753.78125 842 2747.820312 845.550781 C 2741.839844 849.101562 2738.859375 854.429688 2738.859375 861.519531 C 2738.859375 868.949219 2743.050781 874.671875 2751.449219 878.699219 C 2759.828125 882.738281 2771.121094 887.5 2785.328125 892.980469 L 2823.558594 907.988281 C 2843.238281 915.730469 2858.410156 926.539062 2869.058594 940.410156 C 2879.710938 954.289062 2885.03125 972.199219 2885.03125 994.140625 C 2885.03125 1011.890625 2880.269531 1028.429688 2870.761719 1043.75 C 2861.230469 1059.078125 2847.28125 1071.421875 2828.890625 1080.78125 C 2810.5 1090.128906 2788.230469 1094.808594 2762.101562 1094.808594 "/>
  <path fill="rgb(13.729858%, 12.159729%, 12.548828%)" d="M 1467.859375 1433.621094 C 1441.078125 1433.621094 1416.320312 1427.738281 1393.570312 1415.960938 C 1370.820312 1404.179688 1352.5 1386.351562 1338.628906 1362.46875 C 1324.75 1338.601562 1317.820312 1308.75 1317.820312 1272.929688 C 1317.820312 1246.480469 1321.929688 1223 1330.160156 1202.511719 C 1338.390625 1182.019531 1349.679688 1164.679688 1364.039062 1150.480469 C 1378.398438 1136.28125 1394.691406 1125.550781 1412.929688 1118.289062 C 1431.148438 1111.03125 1450.109375 1107.398438 1469.800781 1107.398438 C 1490.769531 1107.398438 1509.558594 1111.511719 1526.191406 1119.738281 C 1542.800781 1127.96875 1556.601562 1137.730469 1567.570312 1149.019531 L 1524.011719 1202.261719 C 1516.261719 1195.488281 1508.28125 1189.921875 1500.050781 1185.570312 C 1491.820312 1181.210938 1482.378906 1179.03125 1471.730469 1179.03125 C 1459.46875 1179.03125 1448.089844 1182.660156 1437.609375 1189.921875 C 1427.121094 1197.179688 1418.738281 1207.589844 1412.441406 1221.140625 C 1406.148438 1234.691406 1403 1250.988281 1403 1270.03125 C 1403 1299.390625 1409.210938 1322.058594 1421.640625 1338.03125 C 1434.058594 1354 1450.441406 1361.988281 1470.769531 1361.988281 C 1483.03125 1361.988281 1493.921875 1359.25 1503.441406 1353.761719 C 1512.949219 1348.28125 1521.101562 1341.980469 1527.878906 1334.878906 L 1571.441406 1387.160156 C 1558.210938 1402.640625 1542.71875 1414.261719 1524.980469 1422.011719 C 1507.230469 1429.75 1488.191406 1433.621094 1467.859375 1433.621094 "/>
  <path fill="rgb(13.729858%, 12.159729%, 12.548828%)" d="M 1718.578125 1361.988281 C 1737.621094 1361.988281 1752.539062 1353.601562 1763.351562 1336.820312 C 1774.160156 1320.050781 1779.570312 1297.460938 1779.570312 1269.058594 C 1779.570312 1240.339844 1774.160156 1218.160156 1763.351562 1202.511719 C 1752.539062 1186.859375 1737.621094 1179.03125 1718.578125 1179.03125 C 1699.859375 1179.03125 1685.019531 1186.859375 1674.050781 1202.511719 C 1663.078125 1218.160156 1657.601562 1240.339844 1657.601562 1269.058594 C 1657.601562 1297.460938 1663.078125 1320.050781 1674.050781 1336.820312 C 1685.019531 1353.601562 1699.859375 1361.988281 1718.578125 1361.988281 Z M 1718.578125 1433.621094 C 1689.539062 1433.621094 1664.050781 1427.089844 1642.109375 1414.019531 C 1620.160156 1400.949219 1603.058594 1382.160156 1590.800781 1357.628906 C 1578.539062 1333.109375 1572.410156 1303.589844 1572.410156 1269.058594 C 1572.410156 1234.53125 1578.539062 1205.25 1590.800781 1181.210938 C 1603.058594 1157.179688 1620.160156 1138.859375 1642.109375 1126.269531 C 1664.050781 1113.691406 1689.539062 1107.398438 1718.578125 1107.398438 C 1747.621094 1107.398438 1773.109375 1113.691406 1795.058594 1126.269531 C 1817 1138.859375 1834.101562 1157.179688 1846.359375 1181.210938 C 1858.621094 1205.25 1864.75 1234.53125 1864.75 1269.058594 C 1864.75 1303.589844 1858.621094 1333.109375 1846.359375 1357.628906 C 1834.101562 1382.160156 1817 1400.949219 1795.058594 1414.019531 C 1773.109375 1427.089844 1747.621094 1433.621094 1718.578125 1433.621094 "/>
  <path fill="rgb(13.729858%, 12.159729%, 12.548828%)" d="M 1911.210938 1427.808594 L 1911.210938 1113.210938 L 2000.269531 1113.210938 L 2047.699219 1241.949219 C 2050.609375 1250.671875 2053.351562 1259.699219 2055.929688 1269.058594 C 2058.511719 1278.421875 2061.261719 1287.78125 2064.160156 1297.128906 L 2066.101562 1297.128906 C 2069 1287.78125 2071.738281 1278.421875 2074.320312 1269.058594 C 2076.898438 1259.699219 2079.648438 1250.671875 2082.550781 1241.949219 L 2128.050781 1113.210938 L 2217.109375 1113.210938 L 2217.109375 1427.808594 L 2141.601562 1427.808594 L 2141.601562 1334.878906 C 2141.601562 1324.230469 2142.238281 1312.21875 2143.539062 1298.820312 C 2144.820312 1285.441406 2146.28125 1271.960938 2147.890625 1258.410156 C 2149.5 1244.859375 2150.960938 1232.921875 2152.25 1222.589844 L 2150.308594 1222.589844 L 2124.179688 1298.101562 L 2085.460938 1402.160156 L 2040.929688 1402.160156 L 2002.210938 1298.101562 L 1977.039062 1222.589844 L 1975.101562 1222.589844 C 1976.390625 1232.921875 1977.839844 1244.859375 1979.460938 1258.410156 C 1981.070312 1271.960938 1982.519531 1285.441406 1983.808594 1298.820312 C 1985.101562 1312.21875 1985.75 1324.230469 1985.75 1334.878906 L 1985.75 1427.808594 L 1911.210938 1427.808594 "/>
  <path fill="rgb(13.729858%, 12.159729%, 12.548828%)" d="M 2360.371094 1262.28125 L 2390.378906 1262.28125 C 2406.828125 1262.28125 2419.011719 1258.328125 2426.921875 1250.421875 C 2434.820312 1242.519531 2438.78125 1231.628906 2438.78125 1217.75 C 2438.78125 1203.558594 2434.421875 1193.550781 2425.710938 1187.738281 C 2417 1181.941406 2404.570312 1179.03125 2388.441406 1179.03125 L 2360.371094 1179.03125 Z M 2277.121094 1427.808594 L 2277.121094 1113.210938 L 2392.308594 1113.210938 C 2415.21875 1113.210938 2436.359375 1116.441406 2455.71875 1122.890625 C 2475.078125 1129.351562 2490.640625 1140.148438 2502.429688 1155.308594 C 2514.199219 1170.488281 2520.089844 1191.300781 2520.089844 1217.75 C 2520.089844 1243.25 2514.199219 1264.140625 2502.429688 1280.429688 C 2490.640625 1296.730469 2475.148438 1308.75 2455.960938 1316.488281 C 2436.761719 1324.230469 2416.191406 1328.109375 2394.25 1328.109375 L 2360.371094 1328.109375 L 2360.371094 1427.808594 L 2277.121094 1427.808594 "/>
  <path fill="rgb(13.729858%, 12.159729%, 12.548828%)" d="M 2561.710938 1427.808594 L 2561.710938 1113.210938 L 2644.960938 1113.210938 L 2644.960938 1358.121094 L 2764.03125 1358.121094 L 2764.03125 1427.808594 L 2561.710938 1427.808594 "/>
  <path fill="rgb(13.729858%, 12.159729%, 12.548828%)" d="M 2808.558594 1427.808594 L 2808.558594 1113.210938 L 3011.839844 1113.210938 L 3011.839844 1182.898438 L 2891.808594 1182.898438 L 2891.808594 1232.269531 L 2994.421875 1232.269531 L 2994.421875 1301.96875 L 2891.808594 1301.96875 L 2891.808594 1358.121094 L 3016.679688 1358.121094 L 3016.679688 1427.808594 L 2808.558594 1427.808594 "/>
  <path fill="rgb(13.729858%, 12.159729%, 12.548828%)" d="M 3037.980469 1427.808594 L 3123.160156 1266.148438 L 3042.820312 1113.210938 L 3135.75 1113.210938 L 3157.039062 1164.511719 C 3160.589844 1171.609375 3164.140625 1179.519531 3167.691406 1188.230469 C 3171.238281 1196.941406 3175.109375 1206.460938 3179.308594 1216.78125 L 3181.238281 1216.78125 C 3184.789062 1206.460938 3188.179688 1196.941406 3191.410156 1188.230469 C 3194.628906 1179.519531 3197.699219 1171.609375 3200.601562 1164.511719 L 3219 1113.210938 L 3308.058594 1113.210938 L 3227.710938 1270.03125 L 3312.898438 1427.808594 L 3219.960938 1427.808594 L 3194.800781 1371.671875 C 3190.921875 1363.28125 3187.210938 1354.890625 3183.660156 1346.5 C 3180.109375 1338.109375 3176.398438 1329.078125 3172.53125 1319.390625 L 3170.601562 1319.390625 C 3167.371094 1329.078125 3164.058594 1338.109375 3160.671875 1346.5 C 3157.289062 1354.890625 3153.808594 1363.28125 3150.269531 1371.671875 L 3127.03125 1427.808594 L 3037.980469 1427.808594 "/>
  <path fill="rgb(85.040283%, 12.998962%, 17.454529%)" d="M 1343.398438 1845.429688 C 1347.921875 1850.199219 1353.238281 1854.039062 1359.371094 1856.949219 C 1365.5 1859.851562 1371.859375 1861.300781 1378.441406 1861.300781 C 1386.828125 1861.300781 1393.351562 1859.398438 1398 1855.589844 C 1402.640625 1851.789062 1404.960938 1846.78125 1404.960938 1840.589844 C 1404.960938 1837.359375 1404.421875 1834.621094 1403.320312 1832.359375 C 1402.21875 1830.101562 1400.738281 1828.171875 1398.871094 1826.550781 C 1396.988281 1824.941406 1394.769531 1823.488281 1392.191406 1822.199219 C 1389.601562 1820.910156 1386.828125 1819.550781 1383.859375 1818.128906 L 1365.660156 1810.191406 C 1362.691406 1808.898438 1359.660156 1807.359375 1356.558594 1805.550781 C 1353.46875 1803.738281 1350.691406 1801.550781 1348.238281 1798.960938 C 1345.789062 1796.378906 1343.789062 1793.320312 1342.238281 1789.769531 C 1340.691406 1786.21875 1339.921875 1782.121094 1339.921875 1777.46875 C 1339.921875 1772.699219 1340.910156 1768.25 1342.921875 1764.121094 C 1344.921875 1759.988281 1347.691406 1756.398438 1351.238281 1753.371094 C 1354.789062 1750.339844 1358.980469 1747.980469 1363.820312 1746.300781 C 1368.660156 1744.628906 1373.988281 1743.789062 1379.800781 1743.789062 C 1387.410156 1743.789062 1394.441406 1745.238281 1400.898438 1748.140625 C 1407.351562 1751.050781 1412.839844 1754.820312 1417.359375 1759.46875 L 1408.648438 1769.921875 C 1404.769531 1766.179688 1400.480469 1763.238281 1395.769531 1761.121094 C 1391.058594 1758.980469 1385.730469 1757.921875 1379.800781 1757.921875 C 1372.691406 1757.921875 1366.988281 1759.570312 1362.660156 1762.859375 C 1358.339844 1766.148438 1356.179688 1770.699219 1356.179688 1776.511719 C 1356.179688 1779.601562 1356.789062 1782.21875 1358.019531 1784.351562 C 1359.238281 1786.46875 1360.890625 1788.351562 1362.949219 1789.960938 C 1365.019531 1791.570312 1367.28125 1793 1369.730469 1794.21875 C 1372.179688 1795.449219 1374.699219 1796.578125 1377.28125 1797.609375 L 1395.28125 1805.351562 C 1398.898438 1806.898438 1402.320312 1808.679688 1405.550781 1810.679688 C 1408.769531 1812.679688 1411.550781 1815 1413.871094 1817.648438 C 1416.191406 1820.289062 1418.03125 1823.390625 1419.390625 1826.941406 C 1420.75 1830.488281 1421.421875 1834.589844 1421.421875 1839.230469 C 1421.421875 1844.269531 1420.421875 1848.980469 1418.421875 1853.371094 C 1416.421875 1857.761719 1413.550781 1861.601562 1409.800781 1864.890625 C 1406.058594 1868.179688 1401.550781 1870.761719 1396.25 1872.628906 C 1390.960938 1874.5 1384.960938 1875.441406 1378.25 1875.441406 C 1369.339844 1875.441406 1361.078125 1873.761719 1353.46875 1870.410156 C 1345.851562 1867.050781 1339.269531 1862.46875 1333.71875 1856.660156 L 1343.398438 1845.429688 "/>
  <path fill="rgb(85.040283%, 12.998962%, 17.454529%)" d="M 1484.339844 1759.660156 L 1446.011719 1759.660156 L 1446.011719 1746.109375 L 1538.941406 1746.109375 L 1538.941406 1759.660156 L 1500.609375 1759.660156 L 1500.609375 1873.109375 L 1484.339844 1873.109375 L 1484.339844 1759.660156 "/>
  <path fill="rgb(85.040283%, 12.998962%, 17.454529%)" d="M 1577.269531 1746.109375 L 1650.460938 1746.109375 L 1650.460938 1759.660156 L 1593.351562 1759.660156 L 1593.351562 1799.539062 L 1641.550781 1799.539062 L 1641.550781 1813.289062 L 1593.351562 1813.289062 L 1593.351562 1859.371094 L 1652.398438 1859.371094 L 1652.398438 1873.109375 L 1577.269531 1873.109375 L 1577.269531 1746.109375 "/>
  <path fill="rgb(85.040283%, 12.998962%, 17.454529%)" d="M 1694.789062 1746.109375 L 1767.96875 1746.109375 L 1767.96875 1759.660156 L 1710.859375 1759.660156 L 1710.859375 1799.539062 L 1759.070312 1799.539062 L 1759.070312 1813.289062 L 1710.859375 1813.289062 L 1710.859375 1859.371094 L 1769.910156 1859.371094 L 1769.910156 1873.109375 L 1694.789062 1873.109375 L 1694.789062 1746.109375 "/>
  <path fill="rgb(85.040283%, 12.998962%, 17.454529%)" d="M 1812.308594 1746.109375 L 1828.371094 1746.109375 L 1828.371094 1859.371094 L 1883.941406 1859.371094 L 1883.941406 1873.109375 L 1812.308594 1873.109375 L 1812.308594 1746.109375 "/>
  <path fill="rgb(85.040283%, 12.998962%, 17.454529%)" d="M 1921.890625 1746.109375 L 1940.859375 1746.109375 L 1965.449219 1814.261719 L 1974.738281 1840.199219 L 1975.519531 1840.199219 L 1984.421875 1814.261719 L 2008.820312 1746.109375 L 2027.789062 1746.109375 L 2027.789062 1873.109375 L 2012.488281 1873.109375 L 2012.488281 1803.21875 C 2012.488281 1797.539062 2012.710938 1791.289062 2013.171875 1784.441406 C 2013.621094 1777.601562 2014.101562 1771.339844 2014.621094 1765.660156 L 2013.851562 1765.660156 L 2003.589844 1793.929688 L 1979.191406 1860.339844 L 1970.089844 1860.339844 L 1945.511719 1793.929688 L 1935.441406 1765.660156 L 1934.660156 1765.660156 C 1935.050781 1771.339844 1935.5 1777.601562 1936.019531 1784.441406 C 1936.53125 1791.289062 1936.800781 1797.539062 1936.800781 1803.21875 L 1936.800781 1873.109375 L 1921.890625 1873.109375 L 1921.890625 1746.109375 "/>
  <path fill="rgb(85.040283%, 12.998962%, 17.454529%)" d="M 2132.140625 1821.421875 L 2126.140625 1802.058594 C 2123.820312 1794.960938 2121.621094 1787.898438 2119.558594 1780.859375 C 2117.488281 1773.828125 2115.429688 1766.628906 2113.359375 1759.28125 L 2112.589844 1759.28125 C 2110.648438 1766.628906 2108.648438 1773.828125 2106.589844 1780.859375 C 2104.519531 1787.898438 2102.328125 1794.960938 2100 1802.058594 L 2094 1821.421875 Z M 2136.210938 1834.390625 L 2089.929688 1834.390625 L 2077.738281 1873.109375 L 2061.28125 1873.109375 L 2104.261719 1746.109375 L 2122.460938 1746.109375 L 2165.441406 1873.109375 L 2148.210938 1873.109375 L 2136.210938 1834.390625 "/>
  <path fill="rgb(85.040283%, 12.998962%, 17.454529%)" d="M 2198.929688 1746.109375 L 2215 1746.109375 L 2215 1809.808594 L 2215.578125 1809.808594 L 2268.441406 1746.109375 L 2286.640625 1746.109375 L 2246.949219 1794.511719 L 2292.828125 1873.109375 L 2274.820312 1873.109375 L 2236.878906 1807.101562 L 2215 1832.839844 L 2215 1873.109375 L 2198.929688 1873.109375 L 2198.929688 1746.109375 "/>
  <path fill="rgb(85.040283%, 12.998962%, 17.454529%)" d="M 2326.511719 1746.109375 L 2342.578125 1746.109375 L 2342.578125 1873.109375 L 2326.511719 1873.109375 L 2326.511719 1746.109375 "/>
  <path fill="rgb(85.040283%, 12.998962%, 17.454529%)" d="M 2392.910156 1746.109375 L 2409.570312 1746.109375 L 2455.449219 1825.878906 L 2469.199219 1852.199219 L 2469.96875 1852.199219 C 2469.589844 1845.75 2469.171875 1839.070312 2468.710938 1832.171875 C 2468.261719 1825.261719 2468.039062 1818.460938 2468.039062 1811.738281 L 2468.039062 1746.109375 L 2483.328125 1746.109375 L 2483.328125 1873.109375 L 2466.679688 1873.109375 L 2420.601562 1793.160156 L 2406.859375 1767.019531 L 2406.078125 1767.019531 C 2406.589844 1773.480469 2407.078125 1780.019531 2407.53125 1786.671875 C 2407.980469 1793.320312 2408.210938 1800 2408.210938 1806.710938 L 2408.210938 1873.109375 L 2392.910156 1873.109375 L 2392.910156 1746.109375 "/>
  <path fill="rgb(85.040283%, 12.998962%, 17.454529%)" d="M 2526.308594 1809.609375 C 2526.308594 1799.421875 2527.761719 1790.25 2530.671875 1782.121094 C 2533.570312 1773.988281 2537.640625 1767.089844 2542.859375 1761.398438 C 2548.089844 1755.730469 2554.25 1751.371094 2561.351562 1748.339844 C 2568.449219 1745.308594 2576.261719 1743.789062 2584.78125 1743.789062 C 2593.550781 1743.789062 2600.878906 1745.429688 2606.75 1748.71875 C 2612.621094 1752.019531 2617.429688 1755.601562 2621.171875 1759.46875 L 2612.078125 1769.730469 C 2608.851562 1766.378906 2605.140625 1763.570312 2600.941406 1761.308594 C 2596.75 1759.050781 2591.429688 1757.921875 2584.96875 1757.921875 C 2578.519531 1757.921875 2572.710938 1759.121094 2567.550781 1761.5 C 2562.378906 1763.890625 2557.988281 1767.308594 2554.378906 1771.761719 C 2550.769531 1776.21875 2547.960938 1781.609375 2545.960938 1787.929688 C 2543.960938 1794.25 2542.960938 1801.351562 2542.960938 1809.21875 C 2542.960938 1817.230469 2543.890625 1824.429688 2545.769531 1830.808594 C 2547.640625 1837.199219 2550.351562 1842.660156 2553.898438 1847.171875 C 2557.441406 1851.691406 2561.839844 1855.179688 2567.058594 1857.628906 C 2572.289062 1860.078125 2578.320312 1861.300781 2585.171875 1861.300781 C 2589.679688 1861.300781 2593.96875 1860.628906 2598.039062 1859.269531 C 2602.109375 1857.921875 2605.429688 1856.078125 2608.011719 1853.75 L 2608.011719 1820.648438 L 2581.101562 1820.648438 L 2581.101562 1807.289062 L 2622.730469 1807.289062 L 2622.730469 1860.730469 C 2618.589844 1864.980469 2613.140625 1868.5 2606.371094 1871.28125 C 2599.589844 1874.050781 2591.941406 1875.441406 2583.421875 1875.441406 C 2575.03125 1875.441406 2567.351562 1873.949219 2560.390625 1870.980469 C 2553.410156 1868.019531 2547.421875 1863.71875 2542.378906 1858.109375 C 2537.351562 1852.5 2533.410156 1845.589844 2530.570312 1837.390625 C 2527.730469 1829.199219 2526.308594 1819.941406 2526.308594 1809.609375 "/>
  <path fill="rgb(85.040283%, 12.998962%, 17.454529%)" d="M 2715.851562 1809.609375 C 2715.851562 1799.421875 2717.261719 1790.25 2720.101562 1782.121094 C 2722.941406 1773.988281 2726.878906 1767.089844 2731.921875 1761.398438 C 2736.949219 1755.730469 2742.921875 1751.371094 2749.820312 1748.339844 C 2756.730469 1745.308594 2764.25 1743.789062 2772.378906 1743.789062 C 2780.121094 1743.789062 2786.898438 1745.371094 2792.710938 1748.53125 C 2798.511719 1751.699219 2803.289062 1755.339844 2807.03125 1759.46875 L 2797.929688 1769.730469 C 2794.578125 1766.121094 2790.871094 1763.238281 2786.800781 1761.121094 C 2782.738281 1758.980469 2777.988281 1757.921875 2772.570312 1757.921875 C 2766.5 1757.921875 2761.019531 1759.121094 2756.121094 1761.5 C 2751.210938 1763.890625 2747.011719 1767.308594 2743.53125 1771.761719 C 2740.050781 1776.21875 2737.328125 1781.609375 2735.398438 1787.929688 C 2733.460938 1794.25 2732.488281 1801.351562 2732.488281 1809.21875 C 2732.488281 1817.230469 2733.429688 1824.429688 2735.300781 1830.808594 C 2737.171875 1837.199219 2739.789062 1842.660156 2743.140625 1847.171875 C 2746.5 1851.691406 2750.601562 1855.179688 2755.441406 1857.628906 C 2760.28125 1860.078125 2765.730469 1861.300781 2771.800781 1861.300781 C 2777.988281 1861.300781 2783.378906 1860.078125 2787.96875 1857.628906 C 2792.539062 1855.179688 2796.898438 1851.691406 2801.03125 1847.171875 L 2810.128906 1857.039062 C 2805.089844 1862.851562 2799.421875 1867.371094 2793.089844 1870.601562 C 2786.769531 1873.820312 2779.539062 1875.441406 2771.410156 1875.441406 C 2763.410156 1875.441406 2756.019531 1873.949219 2749.238281 1870.980469 C 2742.46875 1868.019531 2736.589844 1863.71875 2731.621094 1858.109375 C 2726.660156 1852.5 2722.78125 1845.589844 2720.011719 1837.390625 C 2717.230469 1829.199219 2715.851562 1819.941406 2715.851562 1809.609375 "/>
  <path fill="rgb(85.040283%, 12.998962%, 17.454529%)" d="M 2890.480469 1861.300781 C 2896.148438 1861.300781 2901.28125 1860.078125 2905.871094 1857.628906 C 2910.449219 1855.179688 2914.378906 1851.660156 2917.679688 1847.078125 C 2920.96875 1842.5 2923.519531 1837.011719 2925.328125 1830.621094 C 2927.128906 1824.230469 2928.039062 1817.039062 2928.039062 1809.03125 C 2928.039062 1801.160156 2927.128906 1794.058594 2925.328125 1787.738281 C 2923.519531 1781.410156 2920.96875 1776.058594 2917.679688 1771.671875 C 2914.378906 1767.28125 2910.449219 1763.890625 2905.871094 1761.5 C 2901.28125 1759.121094 2896.148438 1757.921875 2890.480469 1757.921875 C 2884.800781 1757.921875 2879.660156 1759.121094 2875.078125 1761.5 C 2870.5 1763.890625 2866.558594 1767.28125 2863.28125 1771.671875 C 2859.988281 1776.058594 2857.429688 1781.410156 2855.628906 1787.738281 C 2853.820312 1794.058594 2852.910156 1801.160156 2852.910156 1809.03125 C 2852.910156 1817.039062 2853.820312 1824.230469 2855.628906 1830.621094 C 2857.429688 1837.011719 2859.988281 1842.5 2863.28125 1847.078125 C 2866.558594 1851.660156 2870.5 1855.179688 2875.078125 1857.628906 C 2879.660156 1860.078125 2884.800781 1861.300781 2890.480469 1861.300781 Z M 2890.480469 1875.441406 C 2882.46875 1875.441406 2875.148438 1873.890625 2868.5 1870.789062 C 2861.851562 1867.691406 2856.140625 1863.269531 2851.371094 1857.53125 C 2846.589844 1851.789062 2842.878906 1844.820312 2840.238281 1836.621094 C 2837.589844 1828.421875 2836.269531 1819.230469 2836.269531 1809.03125 C 2836.269531 1798.828125 2837.589844 1789.699219 2840.238281 1781.628906 C 2842.878906 1773.570312 2846.589844 1766.730469 2851.371094 1761.121094 C 2856.140625 1755.5 2861.851562 1751.210938 2868.5 1748.238281 C 2875.148438 1745.269531 2882.46875 1743.789062 2890.480469 1743.789062 C 2898.480469 1743.789062 2905.800781 1745.308594 2912.449219 1748.339844 C 2919.101562 1751.371094 2924.839844 1755.691406 2929.679688 1761.308594 C 2934.519531 1766.921875 2938.261719 1773.761719 2940.910156 1781.828125 C 2943.550781 1789.898438 2944.878906 1798.960938 2944.878906 1809.03125 C 2944.878906 1819.230469 2943.550781 1828.421875 2940.910156 1836.621094 C 2938.261719 1844.820312 2934.519531 1851.789062 2929.679688 1857.53125 C 2924.839844 1863.269531 2919.101562 1867.691406 2912.449219 1870.789062 C 2905.800781 1873.890625 2898.480469 1875.441406 2890.480469 1875.441406 "/>
  <path fill="rgb(85.040283%, 12.998962%, 17.454529%)" d="M 3039.738281 1821.421875 L 3033.738281 1802.058594 C 3031.421875 1794.960938 3029.21875 1787.898438 3027.160156 1780.859375 C 3025.089844 1773.828125 3023.03125 1766.628906 3020.960938 1759.28125 L 3020.191406 1759.28125 C 3018.25 1766.628906 3016.25 1773.828125 3014.191406 1780.859375 C 3012.121094 1787.898438 3009.921875 1794.960938 3007.601562 1802.058594 L 3001.601562 1821.421875 Z M 3043.808594 1834.390625 L 2997.539062 1834.390625 L 2985.339844 1873.109375 L 2968.878906 1873.109375 L 3011.859375 1746.109375 L 3030.058594 1746.109375 L 3073.039062 1873.109375 L 3055.808594 1873.109375 L 3043.808594 1834.390625 "/>
  <path fill="rgb(85.040283%, 12.998962%, 17.454529%)" d="M 3106.53125 1746.109375 L 3122.601562 1746.109375 L 3122.601562 1859.371094 L 3178.171875 1859.371094 L 3178.171875 1873.109375 L 3106.53125 1873.109375 L 3106.53125 1746.109375 "/>
  <path fill="rgb(85.040283%, 12.998962%, 17.454529%)" d="M 3180.210938 1635.671875 L 1332.261719 1635.671875 L 1332.261719 1625.988281 L 3180.210938 1625.988281 L 3180.210938 1635.671875 "/>
</g>
</svg>